<svg xmlns="http://www.w3.org/2000/svg" viewBox="0 0 373.82 373.82"><defs><style>.cls-1{fill:#5983bd;}.cls-2{fill:#fff;}</style></defs><title>Ресурс 5</title><g id="Слой_2" data-name="Слой 2"><g id="Layer_1" data-name="Layer 1"><circle class="cls-1" cx="186.91" cy="186.91" r="186.91"/><path class="cls-2" d="M242.74,156.33h0a3,3,0,0,0,.6-.07l.17,0a2.81,2.81,0,0,0,.4-.14l.2-.1a2.75,2.75,0,0,0,.33-.21l.19-.16a.94.94,0,0,0,.13-.1c.06-.06.1-.12.16-.18s.08-.07.11-.12l8.65-11.1a2.92,2.92,0,1,0-4.6-3.59L242.5,149l-3.06-3.14a2.92,2.92,0,1,0-4.18,4.06l5.39,5.55.15.13.15.14.09.06.18.12.3.16.19.08.35.11.16,0A3.54,3.54,0,0,0,242.74,156.33Z"/><path class="cls-2" d="M247.06,134a2.44,2.44,0,1,0-2.44,2.45A2.45,2.45,0,0,0,247.06,134Z"/><path class="cls-2" d="M226.67,148.93a2.45,2.45,0,1,0,2.44-2.45A2.45,2.45,0,0,0,226.67,148.93Z"/><path class="cls-2" d="M258.82,151.36a2.44,2.44,0,1,0-2.44-2.45A2.45,2.45,0,0,0,258.82,151.36Z"/><path class="cls-2" d="M262,128.76a26.5,26.5,0,1,0,9.4,20.24A27,27,0,0,0,262,128.76Zm-17.68,40.41A20.17,20.17,0,1,1,264.78,149,20.44,20.44,0,0,1,244.37,169.17Z"/><path class="cls-2" d="M244.62,166.3a2.45,2.45,0,1,0-2.44-2.45A2.44,2.44,0,0,0,244.62,166.3Z"/><path class="cls-2" d="M122.82,61.25H133.5V86.33H122.82ZM67.74,90.58,75.27,83,93,100.74l-7.52,7.55Zm95.54,10.18L181,83l7.54,7.54-17.75,17.73Z"/><circle class="cls-2" cx="128.15" cy="114.92" r="18.65"/><path class="cls-2" d="M195.28,167.62a7.85,7.85,0,0,0-3.52-5.94l-38.88-25.48a7.73,7.73,0,0,0-2.64-1.1v0l-.51-.11a.54.54,0,0,0-.17,0h-1.13c-6.79,0-34.32,0-36.71.07-.43,0-.83,0-1.25.06a7.82,7.82,0,0,0-5.71,1.15L65.87,161.68a7.84,7.84,0,0,0-1,12.36l31,28.2a7.85,7.85,0,0,0,11.08-.52c.13-.15.26-.31.38-.46q0,43.92,0,87.84a28.2,28.2,0,0,0,.41,5.43c.74,3.7,3.56,5.54,6.72,7h5c5.78-2,7.65-6.21,7.61-12.12-.16-23.38-.07-46.75-.07-70.13v-3.06h3.39v3c0,23.29.12,46.59-.08,69.88,0,6,1.72,10.29,7.55,12.42h5c5.78-2.09,7.47-6.45,7.45-12.26q-.06-27.31-.06-54.63V201.19c.14.18.28.36.43.53a7.85,7.85,0,0,0,11.08.52l31-28.2A7.84,7.84,0,0,0,195.28,167.62Zm-88.85,23L82.93,169.26l24.41-16v8.46h0V165q0,13.31,0,26.61A8,8,0,0,0,106.43,190.65ZM128.59,137h4.55l-2.6,6.72H127l-2.6-6.72Zm.16,44.08L124,177.17l3-30.45h3.5l3,30.45Zm22.44,9.58a7.63,7.63,0,0,0-1,1.05V153.23l24.47,16Z"/><path class="cls-2" d="M106.2,146.81"/><polygon class="cls-2" points="299.48 235.18 299.43 235.15 299.43 241.91 302.98 244.3 171.8 244.3 175.35 241.91 175.35 235.15 161.17 244.3 161.17 251.34 175.35 251.34 175.35 293.46 166.58 293.46 166.58 297.59 166.58 301.5 308.22 301.5 308.22 297.59 308.22 293.46 299.44 293.46 299.44 251.34 313.62 251.34 313.62 244.3 299.44 235.15 299.48 235.18"/><path class="cls-2" d="M267,229.52h25.45V228h-35.3v0c-.3.12-1.88.65-1.88,1.92v6.79c0,.89,1.95,1.36,1.95,1.36l7,1a8.2,8.2,0,0,0,2.62.32h25.58v-1.24H267a1.53,1.53,0,0,1-1.36-.83H291v-1H265.45v-.9H291v-1H265.45v-.85H291v-1H265.45v-.9H291v-1H265.53A1.53,1.53,0,0,1,267,229.52Z"/><path class="cls-2" d="M283.08,215.4H257.5v1.24h25.45a1.54,1.54,0,0,1,1.36.83H258.91v1h25.57v.9H258.91v1h25.57v.85H258.91v1h25.57v.9H258.91v1H284.4a1.54,1.54,0,0,1-1.46,1.07H257.49v1.5h35.3v0c.3-.12,1.88-.64,1.88-1.92V218c0-.89-1.94-1.36-1.94-1.36l-7-1A8.2,8.2,0,0,0,283.08,215.4Z"/><path class="cls-2" d="M255.1,212.67l7,1a8.15,8.15,0,0,0,2.62.32h25.58v-1.24H264.89a1.53,1.53,0,0,1-1.35-.83h25.39v-1H263.36V210h25.57v-1H263.36v-.85h25.57v-1H263.36v-.9h25.57v-1H263.43a1.54,1.54,0,0,1,1.46-1.07h25.45v-1.5H255v0c-.3.12-1.88.65-1.88,1.92v6.79C253.16,212.21,255.1,212.67,255.1,212.67Z"/><path class="cls-2" d="M250.81,199.79,244.64,197c-.81-.37-2.09,1.3-2.09,1.3l-4,6.36a9.08,9.08,0,0,0-1.45,2.39l-.06.13L225.81,231.6l.19.09.57.26.37.17,11.25-24.46a1.64,1.64,0,0,1,1.35-1L228.31,231.1l.93.43,11.31-24.59.82.38-11.31,24.59.93.43,11.31-24.59.77.35-11.31,24.59.93.43L244,208.53l.82.38L233.5,233.5l.93.43,11.27-24.51a1.62,1.62,0,0,1,.33,1.85l-11.25,24.47.56.26.38.17.43.2,9.7-21.09h0l5.91-12.85h0C251.75,202.06,252,200.32,250.81,199.79Z"/><path class="cls-2" d="M196,229.24h25.45v-1.5H186.18v0c-.3.12-1.88.65-1.88,1.92v6.79c0,.89,1.95,1.36,1.95,1.36l7,1a8.17,8.17,0,0,0,2.62.32h25.58v-1.24H196a1.54,1.54,0,0,1-1.36-.83h25.39v-1H194.5v-.9h25.57v-1H194.5v-.85h25.57v-1H194.5v-.9h25.57v-1H194.58A1.53,1.53,0,0,1,196,229.24Z"/><path class="cls-2" d="M221.85,226.47c.3-.12,1.88-.64,1.88-1.92v-6.79c0-.9-1.95-1.36-1.95-1.36l-7-1a8.19,8.19,0,0,0-2.62-.31H186.55v1.24H212a1.55,1.55,0,0,1,1.36.83H188v1h25.57v.9H188v1h25.57V221H188v1h25.57v.9H188v1h25.49A1.54,1.54,0,0,1,212,225H186.55v1.5h35.3Z"/><path class="cls-2" d="M182.21,204.25V211c0,.89,1.95,1.35,1.95,1.35l7,1a8.24,8.24,0,0,0,2.62.31h25.58v-1.24H193.95a1.53,1.53,0,0,1-1.36-.83H218v-1H192.41v-.9H218v-1H192.41v-.85H218v-1H192.41v-.9H218v-1H192.49a1.54,1.54,0,0,1,1.46-1.07H219.4v-1.5h-35.3v0C183.79,202.45,182.21,203,182.21,204.25Z"/><path class="cls-2" d="M208.4,199.48H183V201h35.3v0c.3-.12,1.88-.65,1.88-1.92v-6.79c0-.89-1.95-1.36-1.95-1.36l-7-1a8.26,8.26,0,0,0-2.62-.32H183v1.24H208.4a1.53,1.53,0,0,1,1.36.83h-25.4v1h25.57v.9H184.37v1h25.57v.85H184.37v1h25.57v.9H184.37v1h25.49A1.53,1.53,0,0,1,208.4,199.48Z"/></g></g></svg>