<svg xmlns="http://www.w3.org/2000/svg" viewBox="0 0 373.82 373.82"><defs><style>.cls-1{fill:#517ab5;}.cls-2{fill:#fff;}</style></defs><title>Ресурс 6</title><g id="Слой_2" data-name="Слой 2"><g id="Layer_1" data-name="Layer 1"><circle class="cls-1" cx="186.91" cy="186.91" r="186.91"/><path class="cls-2" d="M117.32,260.94v-1.38H119v1.61q0,30.46,0,60.92a13.57,13.57,0,0,0,.2,2.67c.36,1.81,1.74,2.72,3.3,3.42h2.44c2.84-1,3.76-3,3.74-5.95-.08-11.47,0-23,0-34.43v-1.51h1.66v1.48c0,11.43.06,22.87,0,34.3,0,2.94.84,5.05,3.7,6.1h2.44c2.84-1,3.67-3.16,3.66-6q-.07-30.45,0-60.9v-1.67h1.59V261q0,10.32,0,20.62a12.2,12.2,0,0,0,.11,1.7,3.57,3.57,0,0,0,7.11-.44c0-5.69,0-11.39,0-17.09,0-2.73,0-5.45,0-8.17a10.82,10.82,0,0,0-11-11.2c-2,0-4,0-6-.05v1L130.51,250l-.2.54,1.25,21.28-2.19,2.46,0,0,0,0-2.2-2.46,1.25-21.28-.2-.54-1.29-2.62v-1l-5.73,0c-5.68.05-9.58,3.25-10.89,8.77a2.17,2.17,0,0,1-.2.43V284a4.26,4.26,0,0,0,2.58,2.37,3.59,3.59,0,0,0,4.68-3.29,15.69,15.69,0,0,0,0-1.71Q117.33,271.13,117.32,260.94Z"/><path class="cls-2" d="M128.63,244.6a8.36,8.36,0,0,0,8.52-5,8.1,8.1,0,0,0-2.49-9.65A21.7,21.7,0,0,0,131,228h-3.17a11.28,11.28,0,0,1-1.08.48,8.29,8.29,0,0,0,1.84,16.09Z"/><path class="cls-2" d="M175.86,260.94v-1.38h1.65v1.61q0,30.46,0,60.92a13.89,13.89,0,0,0,.2,2.67c.36,1.81,1.75,2.72,3.3,3.42h2.44c2.83-1,3.76-3,3.74-5.95-.08-11.47,0-23,0-34.43v-1.51h1.67v1.48c0,11.43.06,22.87,0,34.3,0,2.94.84,5.05,3.7,6.1h2.44c2.84-1,3.66-3.16,3.66-6q-.07-30.45,0-60.9v-1.67h1.59V261q0,10.32,0,20.62a12.33,12.33,0,0,0,.1,1.7,3.57,3.57,0,0,0,7.11-.44c0-5.69,0-11.39,0-17.09,0-2.73,0-5.45,0-8.17a10.82,10.82,0,0,0-11-11.2c-2,0-4,0-6.05-.05v1L189,250l-.2.54,1.25,21.28-2.19,2.46,0,0,0,0-2.2-2.46,1.25-21.28-.2-.54-1.29-2.62v-1l-5.73,0c-5.68.05-9.58,3.25-10.89,8.77a2.3,2.3,0,0,1-.2.43V284a4.27,4.27,0,0,0,2.58,2.37,3.59,3.59,0,0,0,4.68-3.29,16.5,16.5,0,0,0,0-1.71Q175.86,271.13,175.86,260.94Z"/><path class="cls-2" d="M187.16,244.6a8.36,8.36,0,0,0,8.52-5,8.1,8.1,0,0,0-2.49-9.65,21.74,21.74,0,0,0-3.63-1.88h-3.17a11,11,0,0,1-1.08.48,8.37,8.37,0,0,0-5.44,9.51A8.46,8.46,0,0,0,187.16,244.6Z"/><path class="cls-2" d="M234.39,260.94v-1.38H236v1.61q0,30.46,0,60.92a13.61,13.61,0,0,0,.2,2.67c.36,1.81,1.74,2.72,3.3,3.42H242c2.83-1,3.76-3,3.74-5.95-.08-11.47,0-23,0-34.43v-1.51h1.67v1.48c0,11.43.05,22.87,0,34.3,0,2.94.84,5.05,3.7,6.1h2.44c2.84-1,3.67-3.16,3.66-6q-.07-30.45,0-60.9v-1.67h1.58V261q0,10.32,0,20.62a11.94,11.94,0,0,0,.11,1.7,3.57,3.57,0,0,0,7.11-.44c0-5.69,0-11.39,0-17.09,0-2.73,0-5.45,0-8.17a10.82,10.82,0,0,0-11-11.2c-2,0-4,0-6-.05v1L247.58,250l-.2.54,1.24,21.28-2.19,2.46,0,0,0,0-2.2-2.46,1.25-21.28-.2-.54-1.29-2.62v-1l-5.73,0c-5.68.05-9.58,3.25-10.89,8.77a2.08,2.08,0,0,1-.2.43V284a4.26,4.26,0,0,0,2.58,2.37,3.59,3.59,0,0,0,4.68-3.29,16.15,16.15,0,0,0,0-1.71Z"/><path class="cls-2" d="M245.69,244.6a8.36,8.36,0,0,0,8.52-5,8.1,8.1,0,0,0-2.49-9.65A21.63,21.63,0,0,0,248.1,228h-3.17a11.49,11.49,0,0,1-1.08.48,8.29,8.29,0,0,0,1.84,16.09Z"/><path class="cls-2" d="M167.67,92.79V90.47h2.77v2.7q0,51,0,102.07a22.74,22.74,0,0,0,.34,4.47c.6,3,2.92,4.55,5.53,5.73h4.09c4.75-1.65,6.29-5.11,6.26-10-.13-19.23-.05-38.45-.05-57.68v-2.52h2.79v2.47c0,19.16.09,38.32-.06,57.48,0,4.92,1.41,8.46,6.2,10.21h4.09c4.75-1.72,6.14-5.3,6.13-10.08q-.12-51,0-102V90.52h2.66V93q0,17.28,0,34.56a21,21,0,0,0,.17,2.85,6,6,0,0,0,11.92-.74c0-9.54,0-19.08,0-28.63,0-4.57,0-9.13,0-13.7-.06-10.79-7.65-18.6-18.45-18.77-3.37-.05-6.76-.08-10.13-.09V70l-2.16,4.39-.34.9L191.5,111l-3.67,4.12-.05-.05-.05.05L184,111l2.09-35.65-.34-.9L183.64,70v-1.6c-3.2,0-6.4,0-9.6.06-9.52.09-16,5.45-18.25,14.69a3.68,3.68,0,0,1-.34.72v47.47c1,1.76,2.14,3.44,4.32,4,4.1,1,7.4-1.31,7.84-5.51a27.33,27.33,0,0,0,.06-2.86Q167.67,109.87,167.67,92.79Z"/><path class="cls-2" d="M186.6,65.41A14,14,0,0,0,200.88,57a13.56,13.56,0,0,0-4.16-16.16c-1.77-1.38-4-2.12-6.08-3.15h-5.32a18.88,18.88,0,0,1-1.8.81,14,14,0,0,0-9.1,15.92A14.16,14.16,0,0,0,186.6,65.41Z"/><path class="cls-2" d="M285.47,263.57a5.26,5.26,0,0,1-5.26-5.26V219.6H95.75v38.71a5.25,5.25,0,1,1-10.51,0v-44a5.26,5.26,0,0,1,5.25-5.26h195a5.26,5.26,0,0,1,5.25,5.26v44A5.25,5.25,0,0,1,285.47,263.57Z"/></g></g></svg>