<svg xmlns="http://www.w3.org/2000/svg" viewBox="0 0 373.82 373.82"><defs><style>.cls-1{fill:#4670ab;}.cls-2{fill:#fff;}</style></defs><title>Ресурс 7</title><g id="Слой_2" data-name="Слой 2"><g id="Layer_1" data-name="Layer 1"><circle class="cls-1" cx="186.91" cy="186.91" r="186.91"/><path class="cls-2" d="M287.63,282.9c-15.26,0-27.62-4.95-27.62-11v11c0,6.1,12.36,11,27.62,11s27.62-4.95,27.62-11v-11C315.26,278,302.88,282.9,287.63,282.9Z"/><path class="cls-2" d="M73.3,140.45v-3.28h3.92V141q0,72.26,0,144.51a32.55,32.55,0,0,0,.48,6.33c.86,4.31,4.14,6.45,7.83,8.11h5.79c6.73-2.34,8.92-7.23,8.87-14.11-.18-27.22-.08-54.45-.08-81.67V200.6h4v3.51c0,27.13.13,54.26-.09,81.38-.05,7,2,12,8.79,14.46h5.8c6.73-2.43,8.69-7.51,8.68-14.28q-.17-72.23-.06-144.47v-4c.64-1.51,1.47-9.68,2-12.14,1.9,1,3.12,1.71,3.13,1.7l3,1.68q21.37,11.91,42.74,23.81a29.48,29.48,0,0,0,3.65,1.75c4.6,1.78,8.71.09,10.79-4.36A8,8,0,0,0,189,138.79c-11.77-6.64-23.59-13.18-35.39-19.76-5.65-3.15-11.28-6.33-16.94-9.44a27.58,27.58,0,0,0-16.19-3.51q-6.43-.09-12.85-.11v2.26l-3.06,6.22-.48,1.28,3,50.48-5.2,5.83-.07-.08-.08.08-5.2-5.83,3-50.48L99,114.45l-3.06-6.22V106q-6.79,0-13.59.08c-13.47.14-22.72,7.71-25.84,20.8a5.41,5.41,0,0,1-.47,1v67.21c1.47,2.49,3,4.87,6.11,5.61,5.81,1.39,10.48-1.86,11.1-7.81a39.58,39.58,0,0,0,.08-4Q73.3,164.64,73.3,140.45Z"/><path class="cls-2" d="M103.81,101.69a19.81,19.81,0,0,0,20.21-12,19.21,19.21,0,0,0-5.89-22.88c-2.51-1.95-5.72-3-8.6-4.46H102a27.92,27.92,0,0,1-2.55,1.14A19.83,19.83,0,0,0,86.56,86.07C88.41,94.44,95.59,100.94,103.81,101.69Z"/><path class="cls-2" d="M165.95,241.48c-15.26,0-27.62-4.94-27.62-11v11c0,6.11,12.36,11,27.62,11s27.62-4.94,27.62-11v-11C193.57,236.54,181.2,241.48,165.95,241.48Z"/><path class="cls-2" d="M165.95,255.86c-15.26,0-27.62-4.95-27.62-11v11c0,6.1,12.36,11,27.62,11s27.62-4.95,27.62-11v-11C193.57,250.91,181.2,255.86,165.95,255.86Z"/><path class="cls-2" d="M165.95,270.24c-15.26,0-27.62-4.95-27.62-11v11c0,6.11,12.36,11,27.62,11s27.62-4.94,27.62-11v-11C193.57,265.3,181.2,270.24,165.95,270.24Z"/><path class="cls-2" d="M165.95,284.62c-15.26,0-27.62-4.94-27.62-11v11c0,6.11,12.36,11,27.62,11s27.62-4.95,27.62-11v-11C193.57,279.68,181.2,284.62,165.95,284.62Z"/><path class="cls-2" d="M165.95,205.09c-15.26,0-27.62,4.95-27.62,11v11c0,6.11,12.36,11,27.62,11s27.62-4.94,27.62-11v-11C193.57,210,181.2,205.09,165.95,205.09Zm0,19.33c-15.18,0-24.86-4.91-24.86-8.29s9.68-8.29,24.86-8.29,24.86,4.9,24.86,8.29S181.13,224.42,165.95,224.42Z"/><path class="cls-2" d="M168,214.87c-3.19-.52-4.51-.85-4.51-1.38s.79-.89,3.23-.89a26.54,26.54,0,0,1,5.41.55l1.09-1.81a27.92,27.92,0,0,0-5.45-.53v-1.42h-3.68v1.52c-4,.34-6.35,1.44-6.35,2.86s2.74,2.35,6.76,2.93c2.78.4,4,.79,4,1.4s-1.46,1-3.61,1a27.92,27.92,0,0,1-6.23-.71l-1.13,1.87a32.2,32.2,0,0,0,6.38.69v1.52h3.68v-1.63c4.32-.32,6.68-1.54,6.68-3S172.52,215.54,168,214.87Z"/><path class="cls-2" d="M227,255.85c-15.26,0-27.62-4.95-27.62-11v11c0,6.1,12.36,11,27.62,11s27.62-4.95,27.62-11v-11C254.62,250.9,242.25,255.85,227,255.85Z"/><path class="cls-2" d="M227,270.23c-15.26,0-27.62-4.95-27.62-11v11c0,6.1,12.36,11,27.62,11s27.62-4.95,27.62-11v-11C254.62,265.28,242.25,270.23,227,270.23Z"/><path class="cls-2" d="M227,284.62c-15.26,0-27.62-4.95-27.62-11v11c0,6.1,12.36,11,27.62,11s27.62-4.95,27.62-11v-11C254.62,279.67,242.25,284.62,227,284.62Z"/><path class="cls-2" d="M227,219.46c-15.26,0-27.62,4.94-27.62,11v11c0,6.11,12.36,11,27.62,11s27.62-4.94,27.62-11v-11C254.62,224.4,242.25,219.46,227,219.46Zm0,19.33c-15.18,0-24.87-4.91-24.87-8.29s9.68-8.29,24.87-8.29,24.86,4.9,24.86,8.29S242.18,238.79,227,238.79Z"/><path class="cls-2" d="M229.1,229.24c-3.19-.52-4.51-.85-4.51-1.38s.79-.9,3.23-.9a26.38,26.38,0,0,1,5.41.56l1.09-1.81a29.52,29.52,0,0,0-5.45-.53v-1.41h-3.68v1.52c-4,.34-6.35,1.45-6.35,2.86s2.74,2.35,6.76,2.93c2.78.4,4,.79,4,1.4s-1.46,1-3.61,1a28,28,0,0,1-6.23-.7l-1.13,1.87a31.71,31.71,0,0,0,6.38.69v1.52h3.68V235.2c4.32-.32,6.68-1.54,6.68-3S233.57,229.92,229.1,229.24Z"/><path class="cls-2" d="M287.63,246.52c-15.26,0-27.62,4.94-27.62,11v11c0,6.11,12.36,11,27.62,11s27.62-4.94,27.62-11v-11C315.26,251.46,302.88,246.52,287.63,246.52Zm0,19.33c-15.18,0-24.87-4.91-24.87-8.29s9.68-8.29,24.87-8.29,24.85,4.9,24.85,8.29S302.81,265.85,287.63,265.85Z"/><path class="cls-2" d="M289.73,256.29c-3.19-.52-4.51-.85-4.51-1.38s.79-.9,3.23-.9a26.4,26.4,0,0,1,5.41.56l1.09-1.82a29.58,29.58,0,0,0-5.45-.53v-1.41h-3.68v1.52c-4,.34-6.35,1.45-6.35,2.86s2.74,2.35,6.76,2.93c2.78.4,4,.79,4,1.4s-1.46,1-3.61,1a28,28,0,0,1-6.23-.7l-1.13,1.87a31.72,31.72,0,0,0,6.38.7v1.52h3.68v-1.63c4.32-.32,6.68-1.54,6.68-3S294.2,257,289.73,256.29Z"/></g></g></svg>