<svg xmlns="http://www.w3.org/2000/svg" viewBox="0 0 678.4 309.02"><defs><style>.cls-1{isolation:isolate;}.cls-2{fill:#9f5e3c;}.cls-3{opacity:0.2;}.cls-4,.cls-73{fill:#fff;}.cls-4{opacity:0;}.cls-5{fill:#f3f3f3;opacity:0.05;}.cls-6{fill:#e7e7e7;opacity:0.1;}.cls-7{fill:#dbdbdb;opacity:0.14;}.cls-8{fill:#cecece;opacity:0.19;}.cls-9{fill:#c2c2c2;opacity:0.24;}.cls-10{fill:#b6b6b6;opacity:0.29;}.cls-11{fill:#aaa;opacity:0.33;}.cls-12{fill:#9e9e9e;opacity:0.38;}.cls-13{fill:#929292;opacity:0.43;}.cls-14{fill:#868686;opacity:0.48;}.cls-15{fill:#797979;opacity:0.52;}.cls-16{fill:#6d6d6d;opacity:0.57;}.cls-17{fill:#616161;opacity:0.62;}.cls-18{fill:#555;opacity:0.67;}.cls-19,.cls-41{fill:#494949;}.cls-19{opacity:0.71;}.cls-20{fill:#3d3d3d;opacity:0.76;}.cls-21{fill:#313131;opacity:0.81;}.cls-22{fill:#242424;opacity:0.86;}.cls-23{fill:#181818;opacity:0.9;}.cls-24{fill:#0c0c0c;opacity:0.95;}.cls-25{fill:#5c6b75;}.cls-26{fill:#231f20;}.cls-27{fill:#c1c1c1;}.cls-28{fill:#e5bda3;}.cls-29{fill:#f4cdb0;}.cls-30{fill:#414042;}.cls-31{fill:#bfc6e8;}.cls-32,.cls-35,.cls-47,.cls-56,.cls-63{fill:none;stroke-miterlimit:10;}.cls-32,.cls-47{stroke:#231f20;}.cls-32{stroke-width:0.44px;}.cls-33{fill:#6d5b55;}.cls-34{fill:#75625c;}.cls-35,.cls-56,.cls-63{stroke:#e9d0a6;}.cls-35{stroke-width:0.13px;}.cls-36{fill:#63514b;}.cls-37{fill:#c9c9c9;}.cls-38{fill:#d4d4d4;}.cls-39{fill:#3d5554;}.cls-40{fill:#3a3a3a;}.cls-42{fill:#333;}.cls-43{fill:#d3d8f2;}.cls-44{fill:#969fcc;}.cls-45{fill:#6d6e71;}.cls-46{fill:#4f4e4f;}.cls-47{stroke-width:0.48px;}.cls-48{fill:#5b5a5b;}.cls-49{fill:#bcbec0;}.cls-50{fill:#d1d3d4;}.cls-51{fill:#ace3f7;}.cls-52{fill:#cdeefa;}.cls-53{fill:#95a9a8;}.cls-54{fill:#556d6c;}.cls-55{fill:#5c7575;}.cls-56{stroke-width:0.11px;}.cls-57{fill:#4b6363;}.cls-58{fill:#a4b4b3;}.cls-59{fill:#9b8579;}.cls-60{fill:#585a60;}.cls-61{fill:#95a1a9;}.cls-62{fill:#55636d;}.cls-63{stroke-width:0.11px;}.cls-64{fill:#4b5963;}.cls-65{fill:#a4aeb4;}.cls-66{fill:#bcbdc0;}.cls-67{fill:#3d4b55;}.cls-68{fill:#d4eef9;}.cls-69{fill:#badce8;}.cls-70{fill:#e4c85b;}.cls-71{fill:#ddba32;}.cls-72{fill:#d75b46;}.cls-74{fill:#ef6a54;}.cls-75{opacity:0.4;mix-blend-mode:screen;}.cls-76{fill:#3cbcd6;}</style></defs><title>Ресурс 5</title><g class="cls-1"><g id="Слой_2" data-name="Слой 2"><g id="Object"><path class="cls-2" d="M659.59,50.92s-4.78-4.63-6.64-5.09.47,1.24.93,1.85-4.47-2.46-5.71-2.93.31,2.46.31,2.46-5.56-2.93-7.56-3.09,0,2.16,0,2.16-6.32-3.4-8.8-2.62,2.31,3.55,2.31,3.55S667,60.8,659.59,50.92"/><g class="cls-3"><path class="cls-4" d="M152.53,293.25C152.53,302,270.26,309,415.47,309S678.4,302,678.4,293.25s-117.72-15.78-262.93-15.78-262.94,7.06-262.94,15.78"/><path class="cls-5" d="M163.72,293.25c0,8.39,112.72,15.2,251.75,15.2s251.74-6.81,251.74-15.2S554.51,278,415.47,278s-251.75,6.81-251.75,15.21"/><path class="cls-6" d="M174.91,293.25c0,8.08,107.71,14.63,240.57,14.63S656,301.33,656,293.25s-107.7-14.64-240.56-14.64-240.57,6.55-240.57,14.64"/><path class="cls-7" d="M186.09,293.25c0,7.76,102.7,14.06,229.38,14.06S644.85,301,644.85,293.25s-102.7-14.06-229.37-14.06-229.38,6.29-229.38,14.06"/><path class="cls-8" d="M197.28,293.25c0,7.45,97.69,13.48,218.19,13.48s218.19-6,218.19-13.48S536,279.76,415.47,279.76s-218.19,6-218.19,13.49"/><path class="cls-9" d="M208.47,293.25c0,7.13,92.68,12.91,207,12.91s207-5.78,207-12.91-92.68-12.92-207-12.92-207,5.78-207,12.92"/><path class="cls-10" d="M219.65,293.25c0,6.81,87.67,12.34,195.82,12.34s195.81-5.53,195.81-12.34S523.62,280.9,415.47,280.9s-195.82,5.53-195.82,12.34"/><path class="cls-11" d="M230.84,293.25c0,6.5,82.66,11.77,184.63,11.77s184.63-5.27,184.63-11.77-82.66-11.77-184.63-11.77-184.63,5.27-184.63,11.77"/><path class="cls-12" d="M242,293.25c0,6.18,77.66,11.19,173.45,11.19s173.44-5,173.44-11.19S511.26,282,415.47,282,242,287.06,242,293.25"/><path class="cls-13" d="M253.21,293.25c0,5.87,72.65,10.62,162.26,10.62s162.25-4.76,162.25-10.62-72.64-10.63-162.25-10.63-162.26,4.76-162.26,10.63"/><path class="cls-14" d="M264.4,293.25c0,5.55,67.64,10,151.07,10s151.07-4.5,151.07-10-67.64-10.05-151.07-10.05-151.07,4.5-151.07,10.05"/><path class="cls-15" d="M275.59,293.25c0,5.23,62.63,9.48,139.89,9.48s139.88-4.24,139.88-9.48-62.63-9.48-139.88-9.48S275.59,288,275.59,293.25"/><path class="cls-16" d="M286.77,293.25c0,4.92,57.62,8.9,128.7,8.9s128.7-4,128.7-8.9-57.62-8.91-128.7-8.91-128.7,4-128.7,8.91"/><path class="cls-17" d="M298,293.25c0,4.6,52.61,8.33,117.51,8.33S533,297.85,533,293.25s-52.61-8.34-117.51-8.34S298,288.64,298,293.25"/><path class="cls-18" d="M309.15,293.25c0,4.28,47.6,7.76,106.33,7.76s106.32-3.47,106.32-7.76-47.6-7.76-106.32-7.76S309.15,289,309.15,293.25"/><path class="cls-19" d="M320.33,293.25c0,4,42.6,7.19,95.14,7.19s95.14-3.22,95.14-7.19-42.59-7.19-95.14-7.19-95.14,3.22-95.14,7.19"/><path class="cls-20" d="M331.52,293.25c0,3.65,37.59,6.61,84,6.61s84-3,84-6.61-37.59-6.62-84-6.62-84,3-84,6.62"/><path class="cls-21" d="M342.7,293.25c0,3.34,32.58,6,72.77,6s72.76-2.7,72.76-6-32.58-6-72.76-6-72.77,2.7-72.77,6"/><path class="cls-22" d="M353.89,293.25c0,3,27.57,5.47,61.58,5.47S477,296.27,477,293.25s-27.57-5.47-61.58-5.47-61.58,2.45-61.58,5.47"/><path class="cls-23" d="M365.08,293.25c0,2.7,22.56,4.89,50.39,4.89s50.39-2.19,50.39-4.89-22.56-4.9-50.39-4.9-50.39,2.19-50.39,4.9"/><path class="cls-24" d="M376.26,293.25c0,2.39,17.55,4.32,39.21,4.32s39.21-1.94,39.21-4.32-17.55-4.33-39.21-4.33-39.21,1.94-39.21,4.33"/><path d="M387.45,293.25c0,2.07,12.55,3.75,28,3.75s28-1.68,28-3.75-12.54-3.76-28-3.76-28,1.68-28,3.76"/></g><path class="cls-25" d="M67.11,128.06s18.82,30.16,10.48,34.19a46.29,46.29,0,0,1-14.54,4.57l-5.92-8.35,9.41-5.65-5.11-12.12s.05-16.42,5.68-12.65"/><rect class="cls-26" x="437.84" y="119.47" width="63.95" height="86.7"/><path class="cls-27" d="M439.95,129.19a30.78,30.78,0,0,1,22.92-10.52l12.85-.08a30.8,30.8,0,0,1,24.09,11.3,30.66,30.66,0,0,0-7.07,19.86l.38,51.41-45.85.34.39-51.75a30.78,30.78,0,0,0-7.7-20.56"/><path class="cls-28" d="M461.44,119.17s2.14,3.14,7.28,3.14a10.53,10.53,0,0,0,7.79-3.14V94H461.44Z"/><path class="cls-29" d="M492.21,64.19,492,92.46a20.61,20.61,0,0,1-20.77,20.46l-8.58-.07A20.61,20.61,0,0,1,442.19,92.1l.21-27.91Z"/><path class="cls-30" d="M499.63,86c1.86-13-1-23.5-6.17-23.91A15.73,15.73,0,0,0,485,54.82c-6.33-2.46-13.58-2-27-1.39-6.17.29-7.43,4.14-8.8,4.63A13.43,13.43,0,0,0,441,66.7c0,.62-2.14,4.88-1.85,5.87,1.54,5.4,11.93,7.78,20.26,8.08s23-5.15,23-5.15-.41,9.88,1,12.14A10.12,10.12,0,0,1,484.72,93l2.67.21s.62-5.35,3.09-4.94.21,10-.82,12.75l-2.88,5.36s8.7-.63,11.94-17.76Z"/><path class="cls-29" d="M488.12,92.17s.92-5.86,4.32-3.5,0,11.83-2.68,10.28-1.64-6.79-1.64-6.79"/><rect class="cls-26" x="308.03" y="119.47" width="63.95" height="86.7"/><path class="cls-31" d="M310.15,129.19a30.78,30.78,0,0,1,22.92-10.52l12.85-.08A30.8,30.8,0,0,1,370,129.9a30.74,30.74,0,0,0-7.08,19.86l.38,51.41-45.85.34.39-51.75a30.78,30.78,0,0,0-7.7-20.56"/><path class="cls-28" d="M332.15,119.17s2.14,3.14,7.28,3.14a10.54,10.54,0,0,0,7.79-3.14V94H332.15Z"/><line class="cls-32" x1="446.3" y1="208.67" x2="442.53" y2="265.42"/><line class="cls-32" x1="493.33" y1="208.67" x2="497.09" y2="265.42"/><rect class="cls-26" x="437.84" y="205.55" width="63.95" height="13.47"/><path class="cls-33" d="M493.16,185.3l-.1,10.25c-.07,8.57-8.58,15.46-19,15.4l-7.87-.05c-10.42,0-18.81-7.06-18.74-15.63l.08-10Z"/><rect class="cls-33" x="473.27" y="200.46" width="19.76" height="67.39"/><rect class="cls-33" x="447.47" y="200.67" width="20.17" height="67.18"/><path class="cls-26" d="M490.79,270.64c0,2.94.06,5.36-2.38,5.36H477.61c-2.43,0-2.47-2.42-2.47-5.36s2-5.36,4.41-5.36h6.84c2.43,0,4.4,2.41,4.4,5.36"/><path class="cls-26" d="M465.47,270.64c0,2.94.06,5.36-2.36,5.36H452.32c-2.44,0-2.48-2.42-2.48-5.36s2-5.36,4.4-5.36h6.84c2.42,0,4.4,2.41,4.4,5.36"/><path class="cls-33" d="M480.7,118s-7.56,43.5-4.47,83.63h18.66l-.61-58,6.19-13.27s-4.33-9.87-19.76-12.33"/><path class="cls-33" d="M457.73,118s7.41,43.2,4.31,83.31l-17,.47-.92-58.17L438,130.38s4.33-9.87,19.76-12.33"/><path class="cls-34" d="M488.41,120s-5.39,24.08-4.93,26.86l-3.09-.16,3.4,2-8.13,22.89s.72-35.6,4.73-54.72c0,0,5.4.66,8,3.13"/><path class="cls-34" d="M449.95,120s5.4,24.08,4.93,26.86l3.09-.16-3.4,2,8.13,22.89S462,136,458,116.91c0,0-5.41.66-8,3.13"/><rect class="cls-26" x="462.73" y="185.36" width="13.03" height="4.91"/><rect class="cls-35" x="465.33" y="184.77" width="7.66" height="5.92"/><path class="cls-34" d="M492.4,174.51l-12.65.47s-1.69,18.36,6.17,19.28,6.48-19.75,6.48-19.75"/><path class="cls-34" d="M445.66,174.51l12.65.47s1.69,18.36-6.18,19.28-6.47-19.75-6.47-19.75"/><polygon class="cls-36" points="475.76 190.27 475.89 202.29 493.09 201.67 475.06 203.36 475.76 190.27"/><polygon class="cls-36" points="462.85 190.27 462.73 202.29 445.51 201.67 463.59 203.36 462.85 190.27"/><path class="cls-37" d="M470.23,121.74l2,8.34s7-7.72,7.19-9.16.29-2.46.29-2.46l-1-3.29Z"/><path class="cls-37" d="M468.06,121.74l-2,8.34s-7-7.72-7.2-9.16-.31-2.46-.31-2.46l1-3.29Z"/><path class="cls-38" d="M470.23,121.74l0,4.26,1-.13a36.38,36.38,0,0,0-1-4.14"/><path class="cls-38" d="M468.06,121.74l0,4.33-1-.06a35.81,35.81,0,0,1,1-4.27"/><polygon class="cls-39" points="470.69 123.13 467.72 123.07 466.69 127.19 467.72 129.82 470.49 129.82 471.53 126.93 470.69 123.13"/><polygon class="cls-39" points="469.32 172.56 475.08 165.15 470.49 129.82 467.72 129.82 463.55 165.25 469.32 172.56"/><path class="cls-34" d="M500.46,130.38s21.56,34.57,12,39.2-16.68,5.24-16.68,5.24L489,165.25l10.8-6.48-5.87-13.89s.06-18.82,6.52-14.5"/><line class="cls-32" x1="499.27" y1="219.02" x2="503.04" y2="275.77"/><line class="cls-32" x1="440.02" y1="219.02" x2="436.27" y2="275.77"/><path class="cls-34" d="M465,209.45c.6.36-4.23-5.4-8.69-4.7s-7.77,3.52-7.53,30.32c0,0,2.58-16,6.36-17.87s3.75-7.52,5.4-5.17,1.17-1.41,1.17-1.41,1-2.58,3.3-1.18"/><path class="cls-34" d="M476.35,209.45c-.61.36,4.24-5.4,8.71-4.7s7.75,3.52,7.52,30.32c0,0-2.59-16-6.35-17.87s-3.77-7.52-5.41-5.17-1.18-1.41-1.18-1.41a2.15,2.15,0,0,0-3.29-1.18"/><line class="cls-32" x1="316.5" y1="208.67" x2="312.74" y2="265.42"/><line class="cls-32" x1="363.52" y1="208.67" x2="367.29" y2="265.42"/><rect class="cls-26" x="308.03" y="205.55" width="63.95" height="13.47"/><path class="cls-40" d="M363.36,185.3l-.1,10.25c-.08,8.57-8.58,15.46-19,15.4l-7.87-.05c-10.42,0-18.81-7.06-18.74-15.63l.08-10Z"/><rect class="cls-40" x="343.48" y="200.46" width="19.74" height="67.39"/><rect class="cls-40" x="317.67" y="200.67" width="20.17" height="67.18"/><path class="cls-26" d="M361,270.64c0,2.94.06,5.36-2.37,5.36h-10.8c-2.45,0-2.48-2.42-2.48-5.36s2-5.36,4.4-5.36h6.85c2.42,0,4.4,2.41,4.4,5.36"/><path class="cls-26" d="M335.67,270.64c0,2.94.07,5.36-2.36,5.36H322.52c-2.44,0-2.48-2.42-2.48-5.36s2-5.36,4.39-5.36h6.84c2.43,0,4.4,2.41,4.4,5.36"/><path class="cls-40" d="M350.9,118s-7.57,43.5-4.48,83.63h18.67l-.61-58,6.18-13.27s-4.33-9.87-19.76-12.33"/><path class="cls-40" d="M327.92,118s7.42,43.2,4.32,83.31l-17,.47-.93-58.17-6.16-13.27s4.32-9.87,19.74-12.33"/><path class="cls-41" d="M358.62,120s-5.41,24.08-4.93,26.86l-3.09-.16,3.4,2-8.13,22.89s.72-35.6,4.73-54.72c0,0,5.4.66,8,3.13"/><path class="cls-41" d="M320.15,120s5.4,24.08,4.93,26.86l3.09-.16-3.4,2,8.13,22.89s-.72-35.6-4.72-54.72c0,0-5.41.66-8,3.13"/><rect class="cls-26" x="332.93" y="185.36" width="13.04" height="4.91"/><rect class="cls-35" x="335.52" y="184.77" width="7.66" height="5.92"/><path class="cls-41" d="M362.6,174.51l-12.65.47s-1.69,18.36,6.17,19.28,6.48-19.75,6.48-19.75"/><path class="cls-41" d="M315.86,174.51l12.65.47s1.69,18.36-6.18,19.28-6.47-19.75-6.47-19.75"/><polygon class="cls-42" points="345.96 190.27 346.08 202.29 363.29 201.67 345.26 203.36 345.96 190.27"/><polygon class="cls-42" points="333.05 190.27 332.93 202.29 315.71 201.67 333.78 203.36 333.05 190.27"/><path class="cls-43" d="M340.43,121.74l2,8.34s7-7.72,7.2-9.16.29-2.46.29-2.46l-1-3.29Z"/><path class="cls-43" d="M338.26,121.74l-2,8.34s-7-7.72-7.19-9.16-.32-2.46-.32-2.46l1-3.29Z"/><path class="cls-44" d="M340.43,121.74l0,4.26,1-.13a36.38,36.38,0,0,0-1-4.14"/><path class="cls-44" d="M338.26,121.74l0,4.33-1-.06a35.85,35.85,0,0,1,1-4.27"/><polygon class="cls-39" points="340.89 123.13 337.92 123.07 336.89 127.19 337.92 129.82 340.7 129.82 341.72 126.93 340.89 123.13"/><polygon class="cls-39" points="339.52 172.56 345.27 165.15 340.69 129.82 337.92 129.82 333.75 165.25 339.52 172.56"/><line class="cls-32" x1="369.47" y1="219.02" x2="373.25" y2="275.77"/><line class="cls-32" x1="310.22" y1="219.02" x2="306.46" y2="275.77"/><path class="cls-41" d="M335.23,209.45c.6.36-4.23-5.4-8.69-4.7s-7.77,3.52-7.52,30.32c0,0,2.57-16,6.34-17.87s3.77-7.52,5.4-5.17,1.18-1.41,1.18-1.41,1-2.58,3.3-1.18"/><path class="cls-41" d="M346.55,209.45c-.6.36,4.24-5.4,8.71-4.7s7.75,3.52,7.52,30.32c0,0-2.59-16-6.35-17.87s-3.76-7.52-5.4-5.17-1.19-1.41-1.19-1.41a2.15,2.15,0,0,0-3.29-1.18"/><path class="cls-30" d="M584.87,258.68s2,12.74-5.14,16.09-12.8,2.79-11.47,6.72c0,0-.19,5,15.14,3.07,0,0,10.62-.83,13.19-2.92,1.94-1.79-.63-15.9-2.34-20,0,0-6.56-3.77-9.39-3"/><path class="cls-45" d="M630.09,125.25s-8.69,19-7.53,32.12l2.35,2.41,3.21-3.42S625.94,144.57,632,126Z"/><path class="cls-45" d="M632.42,119.68s-2.81,5.9-2.34,6.22a11.62,11.62,0,0,0,2.81.47l1.71-5.45s-1.4-2.8-2.18-1.24"/><path class="cls-28" d="M635.07,123.3s1.86,3.62,8.69,2.23a13.19,13.19,0,0,0,8.14-4.89l-4.44-28.12-16.82,2.66Z"/><path class="cls-46" d="M647.51,115.16s16.52-5.35,13.71,31.12c-1.45,18.82,1.4,50,1.4,50l-33.14.24s-17.45-81.78,18-81.32"/><path class="cls-26" d="M631.61,219.35l-2.91-24.44,34.23-1.25s3.2,19-7.55,23.59-23.78,2.09-23.78,2.09"/><polygon class="cls-30" points="662.78 189.47 664.03 195.7 628.23 197.56 628.08 192.27 662.78 189.47"/><polygon class="cls-26" points="658.9 196.39 660.77 196.23 660.19 189.33 658.32 189.48 658.9 196.39"/><polygon class="cls-26" points="651.97 196.8 653.83 196.65 653.25 189.74 651.38 189.9 651.97 196.8"/><polygon class="cls-26" points="632.79 198.26 634.64 198.1 634.07 191.2 632.2 191.35 632.79 198.26"/><path class="cls-46" d="M654.67,115.63l-3.13-4c-7.36-.54-19.13,5.52-19.13,5.52l.47,6.54s4.5-8.41,21.78-8.1"/><path class="cls-26" d="M629.21,198.74s-38.72,10.88-39.92,14.71-7.52,58.09-7.52,58.09l16.49,2.39s8.13-43,7.78-48.05c5-2.87,31.07-6.69,32.14-6.32s12.2-18.65-9-20.8"/><line class="cls-47" x1="626.47" y1="220.06" x2="622.34" y2="276.41"/><line class="cls-47" x1="664" y1="220.06" x2="668.13" y2="276.41"/><path class="cls-26" d="M617.16,231.92H673.3V217.1s-35.77.06-47.24,0c-13.86-.07-8.9,14.82-8.9,14.82"/><path class="cls-26" d="M673.26,217.45v-87s-11.41-2.13-12,18.67c-.38,14.34-.54,37.3,0,53.07.55,16.14,12,15.24,12,15.24"/><line class="cls-47" x1="670.54" y1="231.44" x2="674.67" y2="287.78"/><line class="cls-47" x1="619.58" y1="231.44" x2="615.44" y2="287.78"/><path class="cls-48" d="M642.2,118.52s8.07-5.21,12.25,2.48-7.35,38.1-12.75,41.87c-6,4.14-22.79,10.2-28.32,10.78,0,0-5.48-9.62-5-10,1.5-1.32,22.39-13.47,22.39-13.47s7.27-27.74,11.43-31.61"/><polygon class="cls-30" points="607.39 163.44 610.92 161.5 617.84 172.94 613 173.89 607.39 163.44"/><path class="cls-46" d="M613.35,171.84a.9.9,0,1,0,1.77-.24.88.88,0,0,0-1-.76.89.89,0,0,0-.77,1"/><rect class="cls-49" x="607.76" y="186.67" width="13.89" height="109.49"/><rect class="cls-50" x="615.84" y="186.67" width="3.49" height="109.49"/><rect class="cls-49" x="198.64" y="186.67" width="13.88" height="109.49"/><rect class="cls-50" x="609.04" y="186.67" width="2.99" height="109.49"/><rect class="cls-50" x="207.18" y="186.67" width="3.49" height="109.49"/><rect class="cls-50" x="200.38" y="186.67" width="2.99" height="109.49"/><rect class="cls-51" x="194.58" y="173.67" width="431.77" height="16.54"/><rect class="cls-52" x="194.58" y="173.67" width="431.77" height="7.68"/><path class="cls-29" d="M608.28,165.18s-6.37,4.5-12.54,5.71c-3.42.67-6.87,1.08-5.87,2.86,0,0,14.49.07,16.26-.08s3.16.54,5.55-2.25Z"/><path class="cls-29" d="M489.63,165.18s-6.37,4.5-12.54,5.71c-3.42.67-6.87,1.08-5.87,2.86,0,0,14.49.07,16.26-.08s3.16.54,5.55-2.25Z"/><path class="cls-41" d="M371,130.38s21.57,34.57,12,39.2-16.68,5.24-16.68,5.24l-6.78-9.57,10.8-6.48-5.87-13.89s.06-18.82,6.52-14.5"/><path class="cls-29" d="M360.17,165.18s-6.37,4.5-12.54,5.71c-3.42.67-6.87,1.08-5.87,2.86,0,0,14.49.07,16.26-.08s3.16.54,5.55-2.25Z"/><path class="cls-34" d="M438,130.38s-21.57,34.57-12,39.2,16.68,5.24,16.68,5.24l6.78-9.57-10.8-6.48,5.87-13.89s-.06-18.82-6.52-14.5"/><path class="cls-29" d="M448.86,165.18s6.37,4.5,12.54,5.71c3.42.67,6.87,1.08,5.87,2.86,0,0-14.49.07-16.26-.08s-3.16.54-5.55-2.25Z"/><path class="cls-53" d="M119.78,118a26.83,26.83,0,0,1,20-9.18l11.2-.07a26.8,26.8,0,0,1,21,9.86,26.86,26.86,0,0,0-6.16,17.31l.34,44.85-40,.29.34-45.14A26.78,26.78,0,0,0,119.78,118"/><path class="cls-54" d="M166.2,166.94l-.08,8.93c-.08,7.48-7.5,13.49-16.58,13.44l-6.87,0c-9.09,0-16.4-6.16-16.34-13.63l.07-8.68Z"/><path class="cls-28" d="M137.78,112.19s2.09,3.06,7.08,3.06a10.21,10.21,0,0,0,7.56-3.06V87.76H137.78Z"/><rect class="cls-54" x="148.86" y="180.15" width="17.22" height="98.05"/><rect class="cls-54" x="126.35" y="180.36" width="17.58" height="97.84"/><path class="cls-26" d="M164.13,280.62c0,2.58.05,4.67-2.07,4.67h-9.42c-2.12,0-2.16-2.09-2.16-4.67s1.72-4.67,3.84-4.67h6c2.11,0,3.84,2.1,3.84,4.67"/><path class="cls-26" d="M142.05,280.62c0,2.58.06,4.67-2.07,4.67h-9.42c-2.11,0-2.15-2.09-2.15-4.67s1.71-4.67,3.83-4.67h6c2.12,0,3.83,2.1,3.83,4.67"/><path class="cls-54" d="M155.34,108.25s-6.6,38-3.92,73h16.29l-.53-50.61L172.56,119s-3.77-8.6-17.23-10.77"/><path class="cls-54" d="M135.29,108.25s6.47,37.69,3.77,72.68l-14.81.4-.8-50.74L118.07,119s3.77-8.6,17.23-10.77"/><path class="cls-55" d="M162.06,110s-4.72,21-4.31,23.41l-2.68-.14,3,1.76-7.1,20s.63-31,4.15-47.73c0,0,4.7.58,7,2.73"/><path class="cls-55" d="M128.51,110s4.72,21,4.3,23.41l2.68-.14-3,1.76,7.1,20s-.63-31-4.14-47.73c0,0-4.71.58-7,2.73"/><rect class="cls-26" x="139.66" y="166.98" width="11.37" height="4.28"/><rect class="cls-56" x="141.92" y="166.46" width="6.68" height="5.16"/><path class="cls-55" d="M165.54,157.53l-11,.39s-1.47,16,5.39,16.82,5.65-17.22,5.65-17.22"/><path class="cls-55" d="M124.76,157.53l11,.39s1.48,16-5.39,16.82-5.65-17.22-5.65-17.22"/><polygon class="cls-57" points="151.03 171.25 151.13 181.74 166.15 181.21 150.39 182.69 151.03 171.25"/><polygon class="cls-57" points="139.77 171.25 139.66 181.74 124.64 181.21 140.39 182.69 139.77 171.25"/><path class="cls-58" d="M146.2,111.49l1.71,7.26s6.1-6.72,6.28-8,.27-2.15.27-2.15l-.9-2.87Z"/><path class="cls-58" d="M144.31,111.49l-1.7,7.26s-6.1-6.72-6.27-8-.28-2.15-.28-2.15l.9-2.87Z"/><path class="cls-49" d="M146.2,111.49l0,3.71.85-.11a30.71,30.71,0,0,0-.88-3.6"/><path class="cls-49" d="M144.31,111.49l0,3.77-.84-.06a30,30,0,0,1,.87-3.72"/><polygon class="cls-39" points="146.6 112.7 144.01 112.66 143.1 116.25 144.01 118.54 146.43 118.54 147.32 116.02 146.6 112.7"/><polygon class="cls-39" points="145.39 155.81 150.42 149.36 146.43 118.54 144.01 118.54 140.37 149.44 145.39 155.81"/><path class="cls-55" d="M172.56,119s18.82,30.16,10.48,34.19a46.29,46.29,0,0,1-14.54,4.57l-5.92-8.35,9.41-5.65-5.11-12.12s.05-16.42,5.68-12.65"/><path class="cls-29" d="M159.89,152.54s-6.27,6.53-4.57,7.94,3.15-2.76,3.15-2.76l7.07-.19.81-1.35s-4.51-5.26-6.47-3.64"/><path class="cls-29" d="M161.1,152.27l2.42-1.61,3.36,5-.53.55s-5.87-1-5.25-3.91"/><path class="cls-55" d="M117.84,119S99,149.18,107.37,153.21a46.16,46.16,0,0,0,14.54,4.57l5.91-8.35-9.42-5.65,5.11-12.12s0-16.42-5.67-12.65"/><path class="cls-29" d="M130.5,152.54s6.27,6.53,4.58,7.94-3.16-2.76-3.16-2.76l-7.07-.19-.81-1.35s4.51-5.26,6.46-3.64"/><path class="cls-29" d="M129.3,152.27l-2.43-1.61-3.42,5,.6.55s5.86-1,5.25-3.91"/><path class="cls-29" d="M121.54,54.79l.2,28.28a20.61,20.61,0,0,0,20.77,20.46l8.57-.07a20.6,20.6,0,0,0,20.47-20.75l-.21-27.92Z"/><path class="cls-59" d="M164.86,67.71c8.33.94,13.9-4.29,6.86-13.15a4.84,4.84,0,0,1-.35-.5c-2.82-2.5-6.79-6-15.69-4.39l-.69.14a30.18,30.18,0,0,0-3.71-1.61c-15.29-5.65-24.52,2.93-24.52,2.93s-3.34,0-4.82,1.47-4.83-.94-7.06,14.62c-.62,4.41.82,5.7.64,6.61C114,81,118,81.1,118,81.1c1.88,16.76,14.14,20,14.14,20s.31-8.09-1.57-10.81-1-9,2.09-9.42,4.62,4.19,4.62,4.19l2.78.86S144.2,70.81,147.57,71c13,.79,14.14-3.78,17.29-3.3"/><path class="cls-29" d="M663.22,56.07,663,86.75A22.39,22.39,0,0,1,640.46,109l-9.31-.08a22.37,22.37,0,0,1-22.21-22.52l.24-30.3Z"/><path class="cls-2" d="M616.22,70.08c-6.54-1-14.46-7.31-7.06-14.8a49.29,49.29,0,0,1,48.39-3.18s3.41.26,5.22,1.6c9.24,6.81,4.32,30.92,4.32,30.92-2,18.18-15.34,21.73-15.34,21.73s-1.18-9.15.87-12.11,3.26-9.42-.15-9.87-4.78,5.25-4.78,5.25l-4.53.25s-4.62-19-8.27-18.77c-11.31.71-15.12-.21-18.66-1"/><path class="cls-29" d="M650.15,88.33s.92-5.86,4.32-3.5,0,11.83-2.68,10.28-1.64-6.78-1.64-6.78"/><path class="cls-29" d="M362.92,64.19l-.21,28.27a20.61,20.61,0,0,1-20.77,20.46l-8.57-.07A20.61,20.61,0,0,1,312.9,92.1l.21-27.91Z"/><path class="cls-59" d="M370.35,86c1.86-13-1-23.5-6.17-23.91,0,0-3.19-5.81-6.47-6.63s-.2,4.11-.2,4.11-11.84-9.82-9.52-2.88c0,0-5.87-3.86-19.29-3.24-6.17.29-7.36,4.42-8.79,4.63s-9,1.85-10.85,2.88,2.67,5.14,2.67,5.76-2.14,4.88-1.85,5.87c1.54,5.4,20.26,8.08,20.26,8.08l23-5.15s-.41,9.88,1,12.14A10.12,10.12,0,0,1,355.43,93l2.67.21s.61-5.35,3.09-4.94.2,10-.82,12.75l-2.88,5.36s8.7-.63,11.94-17.76Z"/><path class="cls-29" d="M358.83,92.17s.92-5.86,4.32-3.5,0,11.83-2.68,10.28-1.64-6.79-1.64-6.79"/><path class="cls-41" d="M308.18,130.38s-13.64,14.23-16.52,16.29-7.82,22.63-7.82,22.63l11.52.81,7-15.63,13-11.52s-1.94-14.49-7.14-12.59"/><path class="cls-29" d="M294.31,169.92a28.29,28.29,0,0,0,5,2.87c2.09.62,1.52,2.57-5.34.62a19.49,19.49,0,0,0-9.23,0c-6.58,1.44-8.67.72-8.86-.52-.1-.61,4.67-1.13,10-3.49.39-.18,8.47.51,8.47.51"/><path class="cls-60" d="M342.43,88.07l-31.17-5.78s-1.33,8.16.54,9.79,8.79,2.39,9.1-.46,3.61-1.24,3.55,1.07c-.07,2.78,2.74,3.57,6,4.48s6.78,1.42,8.7.46c2.69-1.34,3.32-9.57,3.32-9.57"/><path class="cls-60" d="M342.43,88.07l17.82.39s-1.39.69-1.85,3.62l-17,.77Z"/><path class="cls-29" d="M349.89,118.45s-.64,3.41-2,8.38a60.61,60.61,0,0,1-2.75,8.22c-1.18,2.68-3.06,6.18-5.64,6.21,0,.25-1.67-.17-2-.41a6.25,6.25,0,0,1-1.55-1.23,15,15,0,0,1-2.45-3.9,51.29,51.29,0,0,1-2.9-8.14c-1.4-5-2-8.37-2-8.37a53.54,53.54,0,0,0,.66,8.66,39.24,39.24,0,0,0,2.29,8.73,17.27,17.27,0,0,0,2.72,4.57,7.67,7.67,0,0,0,2.44,1.92,5.15,5.15,0,0,0,3,.63,6.8,6.8,0,0,0,5-3.22,19.85,19.85,0,0,0,2.44-4.67,44.36,44.36,0,0,0,2.12-8.74,60,60,0,0,0,.65-8.66"/><path class="cls-61" d="M19.31,129.45a25,25,0,0,1,18.62-8.54l10.43-.08A25,25,0,0,1,67.91,130a25,25,0,0,0-5.74,16.13l.31,41.75-37.22.27.29-42a24.81,24.81,0,0,0-6.25-16.69"/><path class="cls-62" d="M62.52,175l-.07,8.32c-.07,7-7,12.56-15.45,12.5l-6.39,0c-8.46-.05-15.27-5.74-15.22-12.69l.08-8.1Z"/><path class="cls-28" d="M35.28,123.73s2.17,3.18,7.35,3.18a10.62,10.62,0,0,0,7.86-3.18V98.34H35.28Z"/><path class="cls-29" d="M69.12,72c0,13.88-.21,22.05-.21,22.05a21.18,21.18,0,0,1-21.34,21L38.76,115a21.19,21.19,0,0,1-21-21.34S18,81.1,18,70.46C18,57.62,69.12,56.67,69.12,72"/><path class="cls-29" d="M69.09,86.7s5.16-3.94,4.42,5.42-4.42,9.37-5.91,3.94a11.49,11.49,0,0,1,1.49-9.36"/><path class="cls-29" d="M17.24,86.7s-5.17-3.94-4.43,5.42,4.43,9.37,5.91,3.94a11.47,11.47,0,0,0-1.48-9.36"/><rect class="cls-62" x="46.37" y="187.31" width="16.04" height="91.29"/><rect class="cls-62" x="25.42" y="187.51" width="16.38" height="91.09"/><path class="cls-26" d="M60.59,280.85c0,2.4.06,4.35-1.92,4.35H49.9c-2,0-2-2-2-4.35s1.61-4.33,3.57-4.33H57c2,0,3.56,1.93,3.56,4.33"/><path class="cls-26" d="M40,280.85c0,2.4.05,4.35-1.92,4.35H29.36c-2,0-2-2-2-4.35s1.6-4.33,3.56-4.33h5.57c2,0,3.56,1.93,3.56,4.33"/><path class="cls-62" d="M52.42,120.39s-6.15,35.33-3.64,67.91H63.94l-.5-47.12,5-10.78s-3.51-8-16-10"/><path class="cls-62" d="M33.75,120.39s6,35.08,3.51,67.66l-13.79.38-.74-47.25-5-10.78s3.5-8,16-10"/><path class="cls-25" d="M58.67,122s-4.38,19.54-4,21.8l-2.5-.13,2.75,1.63-6.59,18.58s.59-28.91,3.84-44.43c0,0,4.39.53,6.52,2.55"/><path class="cls-25" d="M27.44,122s4.38,19.54,4,21.8l2.51-.13-2.74,1.63,6.58,18.58s-.57-28.91-3.84-44.43c0,0-4.37.53-6.51,2.55"/><rect class="cls-26" x="37.81" y="175.06" width="10.58" height="3.99"/><rect class="cls-63" x="39.91" y="174.56" width="6.24" height="4.83"/><path class="cls-25" d="M61.91,166.24l-10.27.37s-1.38,14.92,5,15.67,5.26-16,5.26-16"/><path class="cls-25" d="M23.95,166.24l10.28.37s1.38,14.92-5,15.67-5.27-16-5.27-16"/><polygon class="cls-64" points="48.4 179.05 48.5 188.81 62.47 188.31 47.82 189.68 48.4 179.05"/><polygon class="cls-64" points="37.92 179.05 37.81 188.81 23.83 188.31 38.49 189.68 37.92 179.05"/><path class="cls-65" d="M43.92,123.38l1.58,6.78s5.67-6.26,5.84-7.43.25-2,.25-2L50.76,118Z"/><path class="cls-65" d="M42.15,123.38l-1.6,6.78s-5.67-6.26-5.84-7.43-.24-2-.24-2L35.3,118Z"/><path class="cls-66" d="M43.92,123.38v3.46l.78-.1a30.05,30.05,0,0,0-.8-3.36"/><path class="cls-66" d="M42.13,123.38v3.52l-.78-.05a29.15,29.15,0,0,1,.79-3.47"/><polygon class="cls-67" points="44.28 124.53 41.86 124.48 41.03 127.81 41.86 129.95 44.12 129.95 44.96 127.61 44.28 124.53"/><polygon class="cls-67" points="43.16 164.66 47.83 158.65 44.12 129.95 41.86 129.95 38.48 158.73 43.16 164.66"/><path class="cls-25" d="M18,130.11S-4.26,156.36.73,161.86c5.78,6.41,19.76,7.46,19.76,7.46l1.88-8.36-7.73-4.47s8.26-6.28,8.26-10.1c.52-5,0-15.38-4.92-16.27"/><path class="cls-68" d="M28.44,159.68c0-1.26,2.65-2.31,5.9-2.31s5.89,1.05,5.89,2.31l-.77,10h0a1,1,0,0,1,0,.15c0,.78-2.66,1.42-5.33,1.42-2.94,0-4.89-.64-4.89-1.42,0-.06,0-.09,0-.15h0Z"/><path class="cls-69" d="M29.06,159.68c0,1.16,2.35,2.07,5.28,2.07s5.28-.91,5.28-2.07-2.37-2.05-5.28-2.05-5.28.93-5.28,2.05"/><path class="cls-29" d="M28.52,160.49s-.6-1.29-2.69,1.11a4.73,4.73,0,0,1-3.93,1.28l-1.23,5.71,8.83,3.7Z"/><path class="cls-29" d="M28.83,162.95a24.34,24.34,0,0,0,6.32,1.71c2.69.19,3.13,2.58-1.11,2.33l-4.23-.24s6.75.13,7.05,1.6-6.87,1.1-6.87,1.1,3.8.62,3.8,1.72-4.05.61-4.05.61,3.19,2,2.82,3.07-9.3-4.72-9.55-5.77,2.86-7.18,5.81-6.14"/><path class="cls-26" d="M70.59,85.9,68.53,90l-3.29.1L63.91,73.45s-11.42,7.72-19,7.21-9.77,2.87-9.77,2.87-1.75-1.34.31-3.7a18.53,18.53,0,0,0,3.09-5.25s-5,4.42-10.39,5.66-7.61,6.27-7.61,7.51A22,22,0,0,1,20.09,91h-2s-1.24-5.45-3.7-4.83c0,0-3.4-18.82,6.48-26.64s39.81.31,39.81.31,4.73-2.26,7.4,2.46S70.59,85.9,70.59,85.9"/><path class="cls-70" d="M51.57,121.07c-1.16,2.71-2.37,5.38-3.66,8a41.21,41.21,0,0,1-2.14,3.69c-.75,1.08-1.87,2.25-2.62,2.15-1.92-.32-3.63-3.51-4.93-5.83-1.35-2.56-2.62-5.2-3.83-7.88a112.67,112.67,0,0,0,1.93,11.95A33.7,33.7,0,0,0,38.23,139c.93,1.78,2,4,4.79,4.66a3.87,3.87,0,0,0,3.37-1.79A14.75,14.75,0,0,0,48,139.06a34.44,34.44,0,0,0,2-5.83,71.48,71.48,0,0,0,2-12c-1.05,3.89-2.16,7.75-3.42,11.53a54.16,54.16,0,0,1-2.16,5.48,12.74,12.74,0,0,1-1.46,2.38c-.66.74-1,1.08-1.65,1-1.34-.14-2.6-1.85-3.49-3.49a34.35,34.35,0,0,1-2.39-5.38,66.56,66.56,0,0,1-3-11.63A43.51,43.51,0,0,0,37,129.66a23.09,23.09,0,0,0,2.13,4,12.9,12.9,0,0,0,1.53,1.83,6.2,6.2,0,0,0,1.17.84,3.35,3.35,0,0,0,1.3.37c2.33-.19,3.14-1.87,4-3a21.78,21.78,0,0,0,2-4,44.17,44.17,0,0,0,2.41-8.53"/><rect class="cls-71" x="142.09" y="130.89" width="6.79" height="1.3"/><rect class="cls-71" x="335.67" y="133.36" width="6.78" height="1.3"/><rect class="cls-71" x="465.88" y="134.8" width="6.78" height="1.3"/><path class="cls-2" d="M658.7,102.65s6.33,5.86,3.55,8.33-2.93,6.32-.3,7.41a8.7,8.7,0,0,1-5.87-6.17c-1.39-5.09,1.55-6.94.62-9s-.92-3.55,2-.61"/><path class="cls-72" d="M567,158.72V167a2.23,2.23,0,0,0,2.23,2.22h2.49v1a3.16,3.16,0,0,0,3.16,3.16h10.3a3.16,3.16,0,0,0,3.16-3.16v-15.6a.94.94,0,0,0-.94-.94H572.62a.94.94,0,0,0-.94.94v1.95h-2.49A2.23,2.23,0,0,0,567,158.72Zm1.87,0a.35.35,0,0,1,.35-.35h2.49v8.93h-2.49a.35.35,0,0,1-.35-.35Z"/><path class="cls-73" d="M577.54,152.81a.33.33,0,0,0,.21-.07.33.33,0,0,0,0-.47c-.46-.57-.28-1.11.05-1.93a2.33,2.33,0,0,0-.05-2.6.33.33,0,1,0-.51.42c.46.57.28,1.11-.05,1.93a2.33,2.33,0,0,0,.05,2.59.32.32,0,0,0,.26.12Z"/><path class="cls-73" d="M580,152.81a.33.33,0,0,0,.21-.07.33.33,0,0,0,0-.47c-.46-.57-.28-1.11,0-1.93a2.33,2.33,0,0,0,0-2.6.33.33,0,0,0-.51.42c.46.57.28,1.11-.05,1.93a2.33,2.33,0,0,0,.05,2.59.33.33,0,0,0,.26.12Z"/><path class="cls-73" d="M582.45,152.81a.33.33,0,0,0,.21-.07.33.33,0,0,0,0-.47c-.46-.57-.28-1.11.05-1.93a2.33,2.33,0,0,0,0-2.6.33.33,0,0,0-.51.42c.47.57.28,1.11,0,1.93a2.33,2.33,0,0,0,0,2.59.33.33,0,0,0,.26.12Z"/><path class="cls-74" d="M567,158.72V167a2.23,2.23,0,0,0,2.23,2.22h2.49v1a3.16,3.16,0,0,0,3.16,3.16h5.21v-19.7h-7.43a.94.94,0,0,0-.94.94v1.95h-2.49A2.23,2.23,0,0,0,567,158.72Zm1.87,0a.35.35,0,0,1,.35-.35h2.49v8.93h-2.49a.35.35,0,0,1-.35-.35Z"/><path class="cls-72" d="M412.17,158.72V167a2.23,2.23,0,0,0,2.23,2.22h2.49v1a3.16,3.16,0,0,0,3.16,3.16h10.3a3.16,3.16,0,0,0,3.16-3.16v-15.6a.94.94,0,0,0-.94-.94H417.83a.94.94,0,0,0-.94.94v1.95H414.4A2.23,2.23,0,0,0,412.17,158.72Zm1.87,0a.35.35,0,0,1,.35-.35h2.49v8.93H414.4A.35.35,0,0,1,414,167Z"/><path class="cls-73" d="M422.74,152.81a.33.33,0,0,0,.21-.07.33.33,0,0,0,0-.47c-.46-.57-.28-1.11.05-1.93a2.33,2.33,0,0,0-.05-2.6.33.33,0,1,0-.51.42c.46.57.28,1.11-.05,1.93a2.33,2.33,0,0,0,.05,2.59.32.32,0,0,0,.26.12Z"/><path class="cls-73" d="M425.2,152.81a.33.33,0,0,0,.21-.07.33.33,0,0,0,0-.47c-.46-.57-.28-1.11,0-1.93a2.33,2.33,0,0,0,0-2.6.33.33,0,0,0-.51.42c.46.57.28,1.11-.05,1.93a2.33,2.33,0,0,0,.05,2.59.33.33,0,0,0,.26.12Z"/><path class="cls-73" d="M427.66,152.81a.33.33,0,0,0,.21-.07.33.33,0,0,0,0-.47c-.46-.57-.28-1.11.05-1.93a2.33,2.33,0,0,0,0-2.6.33.33,0,0,0-.51.42c.47.57.28,1.11,0,1.93a2.33,2.33,0,0,0,0,2.59.33.33,0,0,0,.26.12Z"/><path class="cls-74" d="M412.17,158.72V167a2.23,2.23,0,0,0,2.23,2.22h2.49v1a3.16,3.16,0,0,0,3.16,3.16h5.21v-19.7h-7.43a.94.94,0,0,0-.94.94v1.95H414.4A2.23,2.23,0,0,0,412.17,158.72Zm1.87,0a.35.35,0,0,1,.35-.35h2.49v8.93H414.4A.35.35,0,0,1,414,167Z"/><path class="cls-72" d="M250.65,158.72V167a2.23,2.23,0,0,0,2.23,2.22h2.49v1a3.16,3.16,0,0,0,3.16,3.16h10.3a3.16,3.16,0,0,0,3.16-3.16v-15.6a.94.94,0,0,0-.94-.94H256.31a.94.94,0,0,0-.94.94v1.95h-2.49A2.23,2.23,0,0,0,250.65,158.72Zm1.87,0a.35.35,0,0,1,.35-.35h2.49v8.93h-2.49a.35.35,0,0,1-.35-.35Z"/><path class="cls-73" d="M261.22,152.81a.33.33,0,0,0,.21-.07.33.33,0,0,0,0-.47c-.46-.57-.28-1.11.05-1.93a2.33,2.33,0,0,0-.05-2.6.33.33,0,1,0-.51.42c.46.57.28,1.11-.05,1.93a2.33,2.33,0,0,0,.05,2.59.32.32,0,0,0,.26.12Z"/><path class="cls-73" d="M263.68,152.81a.33.33,0,0,0,.21-.07.33.33,0,0,0,0-.47c-.46-.57-.28-1.11,0-1.93a2.33,2.33,0,0,0,0-2.6.33.33,0,0,0-.51.42c.46.57.28,1.11-.05,1.93a2.33,2.33,0,0,0,.05,2.59.33.33,0,0,0,.26.12Z"/><path class="cls-73" d="M266.13,152.81a.33.33,0,0,0,.21-.07.33.33,0,0,0,0-.47c-.46-.57-.28-1.11.05-1.93a2.33,2.33,0,0,0,0-2.6.33.33,0,0,0-.51.42c.47.57.28,1.11,0,1.93a2.33,2.33,0,0,0,0,2.59.33.33,0,0,0,.26.12Z"/><path class="cls-74" d="M250.65,158.72V167a2.23,2.23,0,0,0,2.23,2.22h2.49v1a3.16,3.16,0,0,0,3.16,3.16h5.21v-19.7h-7.43a.94.94,0,0,0-.94.94v1.95h-2.49A2.23,2.23,0,0,0,250.65,158.72Zm1.87,0a.35.35,0,0,1,.35-.35h2.49v8.93h-2.49a.35.35,0,0,1-.35-.35Z"/><g class="cls-75"><path class="cls-76" d="M209.21,105.11a1.06,1.06,0,0,0,1.06-1.06V91.34a1.06,1.06,0,0,0-1.06-1.06H196.51a1.06,1.06,0,0,0,0,2.12h11.65v11.65A1.06,1.06,0,0,0,209.21,105.11Z"/><path class="cls-76" d="M208.47,104.8,195.76,92.09a1.06,1.06,0,0,1-.31-.75V60.57a1.06,1.06,0,0,1,1.06-1.06H231.1a1.06,1.06,0,0,1,1.06,1.06v43.48a1.06,1.06,0,0,1-1.06,1.06H209.21A1.07,1.07,0,0,1,208.47,104.8ZM230,61.63H197.56V90.9L209.65,103H230Z"/><path class="cls-76" d="M211.51,69.66h12.44a1.06,1.06,0,1,0,0-2.12H211.51a1.06,1.06,0,1,0,0,2.12Z"/><path class="cls-76" d="M203.3,74.78h20.65a1.06,1.06,0,0,0,0-2.12H203.3a1.06,1.06,0,1,0,0,2.12Z"/><path class="cls-76" d="M203.3,79.9h20.65a1.06,1.06,0,0,0,0-2.12H203.3a1.06,1.06,0,1,0,0,2.12Z"/><path class="cls-76" d="M215.3,85h8.64a1.06,1.06,0,1,0,0-2.12H215.3a1.06,1.06,0,1,0,0,2.12Z"/><path class="cls-76" d="M522,100.33h7.35v9.28a1,1,0,0,0,1,1.06h11.45v2.72a1,1,0,0,1-1,1.06h-12.2l-4.69,4v-4H522a1,1,0,0,1-1-1.06v-12A1,1,0,0,1,522,100.33Z"/><path class="cls-76" d="M542.34,111.14h-12a1.51,1.51,0,0,1-1.47-1.54v-12a1.51,1.51,0,0,1,1.47-1.54h18.79a1.51,1.51,0,0,1,1.47,1.54v12a1.51,1.51,0,0,1-1.47,1.54h-1.42v4.53ZM530.32,97a.54.54,0,0,0-.5.57v12a.54.54,0,0,0,.5.57h12.38l4,3.4v-3.4h2.4a.54.54,0,0,0,.5-.57v-12a.54.54,0,0,0-.5-.57Z"/><rect class="cls-76" x="532.44" y="100.82" width="14.54" height="0.97"/><rect class="cls-76" x="532.44" y="103.7" width="14.54" height="0.97"/><rect class="cls-76" x="535.66" y="106.57" width="11.32" height="0.97"/><path class="cls-76" d="M328.71,42.58a.83.83,0,0,0,.78-1.07L316.48.57A.83.83,0,0,0,315.7,0h0a.83.83,0,0,0-.78.56l-13.69,40.7a.82.82,0,1,0,1.56.53L315.67,3.47,327.92,42A.83.83,0,0,0,328.71,42.58Z"/><path class="cls-76" d="M331.53,42.6a.82.82,0,0,0,0-1.65l-6.37-.06h0a.82.82,0,0,0,0,1.65l6.37.06Z"/><path class="cls-76" d="M305.55,42.38a.82.82,0,0,0,0-1.65l-6.37-.05h0a.82.82,0,0,0,0,1.65l6.37.05Z"/><path class="cls-76" d="M324,29.95a.82.82,0,0,0,0-1.65l-17.08-.15h0a.82.82,0,0,0,0,1.65l17.08.15Z"/><path class="cls-76" d="M297.68,20.94a9.61,9.61,0,0,1-4.56-1.15,7.54,7.54,0,0,1-3.11-3c-.76-1.35-1.12-3.4-1.09-6.28V9.41a.82.82,0,0,1,1.12-.76A37.68,37.68,0,0,0,294.81,10c2.31.53,3.69.86,4.47,1.08a6.76,6.76,0,0,1,2.65,1.49,4.11,4.11,0,0,1,1.38,3.32,4.85,4.85,0,0,1-1.6,3.62,5.56,5.56,0,0,1-4,1.44ZM291.46,16a5.93,5.93,0,0,0,2.46,2.32,7.83,7.83,0,0,0,3.78,1l.05.83v-.83a3.92,3.92,0,0,0,2.83-1,3.22,3.22,0,0,0,1.08-2.43,2.51,2.51,0,0,0-.82-2.07,5.05,5.05,0,0,0-2-1.15c-.74-.21-2.14-.54-4.39-1.06-1.58-.36-2.86-.71-3.87-1A11.61,11.61,0,0,0,291.46,16Z"/><path class="cls-76" d="M289.49,20.69a.83.83,0,0,0,.83-.82l.1-12.42a4.91,4.91,0,0,1,4.74-5h1.34a4.73,4.73,0,0,1,4.33,3.11.82.82,0,1,0,1.53-.6A6.37,6.37,0,0,0,296.51.81h-1.36a6.56,6.56,0,0,0-6.39,6.64l-.1,12.42a.82.82,0,0,0,.82.83Z"/><path class="cls-76" d="M207.68,148h14.8a2.18,2.18,0,0,0,2.18-2.18V125.94a.82.82,0,0,0-1.65,0v19.86a.53.53,0,0,1-.53.53h-14.8a.53.53,0,0,1-.53-.53V129a.53.53,0,0,1,.53-.53.82.82,0,1,0,0-1.65,2.18,2.18,0,0,0-2.18,2.18v16.77A2.18,2.18,0,0,0,207.68,148Z"/><path class="cls-76" d="M207.88,128.5h13.73a3,3,0,0,0,0-6.09H206.32a.82.82,0,0,0,0,1.65h15.29a1.4,1.4,0,0,1,0,2.79H207.88a.82.82,0,1,0,0,1.65Z"/><path class="cls-76" d="M215.12,140a.85.85,0,0,0,.33-.07l2-.88,2,.88a.83.83,0,0,0,1.16-.75V128.71a.83.83,0,1,0-1.65,0v9.18l-1.18-.52a.84.84,0,0,0-.66,0l-1.18.52v-9.18a.82.82,0,1,0-1.65,0v10.44a.83.83,0,0,0,.37.69A.84.84,0,0,0,215.12,140Z"/><path class="cls-76" d="M157.37,22.56a1,1,0,0,0,1-1v-2.2a1,1,0,1,0-2.09,0v2.2A1,1,0,0,0,157.37,22.56Z"/><path class="cls-76" d="M157.37,43.89a1,1,0,0,0,1-1v-2.2a1,1,0,0,0-2.09,0v2.2A1,1,0,0,0,157.37,43.89Z"/><path class="cls-76" d="M145.61,32.12h2.2a1,1,0,1,0,0-2.09h-2.2a1,1,0,0,0,0,2.09Z"/><path class="cls-76" d="M166.94,32.12h2.2a1,1,0,1,0,0-2.09h-2.2a1,1,0,1,0,0,2.09Z"/><path class="cls-76" d="M150.61,25.36a1,1,0,0,0,.74-1.78L149.79,22a1,1,0,0,0-1.47,1.47l1.56,1.56A1,1,0,0,0,150.61,25.36Z"/><path class="cls-76" d="M165.69,40.44a1,1,0,0,0,.74-1.78l-1.55-1.56a1,1,0,0,0-1.48,1.48L165,40.14A1,1,0,0,0,165.69,40.44Z"/><path class="cls-76" d="M149.05,40.44a1,1,0,0,0,.74-.31l1.56-1.55a1,1,0,0,0-1.48-1.48l-1.56,1.56a1,1,0,0,0,.74,1.78Z"/><path class="cls-76" d="M164.14,25.36a1,1,0,0,0,.74-.31l1.55-1.56A1,1,0,1,0,165,22l-1.55,1.55a1,1,0,0,0,.74,1.78Z"/><path class="cls-76" d="M150.68,31.08a6.69,6.69,0,1,1,6.69,6.69A6.7,6.7,0,0,1,150.68,31.08Zm2.09,0a4.61,4.61,0,1,0,4.61-4.61A4.61,4.61,0,0,0,152.77,31.08Z"/><path class="cls-76" d="M203.08,24.51V17.35a.82.82,0,0,1,.82-.82h14a.82.82,0,0,1,.82.82v7.16a7.82,7.82,0,1,1-15.64,0Zm1.65-6.34v6.34a6.17,6.17,0,1,0,12.34,0V18.17Z"/><path class="cls-76" d="M218.32,24.94a5.16,5.16,0,0,0,5.16-5.16V17.35a.82.82,0,0,0-.82-.82h-4.83a.82.82,0,0,0,0,1.65h4v1.61a3.51,3.51,0,0,1-3.51,3.51.82.82,0,0,0,0,1.65Z"/><path class="cls-76" d="M203.48,24.94a.82.82,0,0,0,0-1.65,3.51,3.51,0,0,1-3.5-3.51V18.17h4a.82.82,0,1,0,0-1.65h-4.83a.82.82,0,0,0-.82.82v2.44A5.16,5.16,0,0,0,203.48,24.94Z"/><path class="cls-76" d="M211,36a.82.82,0,0,0,.82-.82V31.84a.82.82,0,1,0-1.65,0v3.33A.82.82,0,0,0,211,36Z"/><path class="cls-76" d="M203.2,38.83h15.66a.82.82,0,0,0,0-1.65H203.2a.82.82,0,0,0,0,1.65Z"/><path class="cls-76" d="M207.95,36.25h6.16a.82.82,0,0,0,0-1.65h-6.16a.82.82,0,1,0,0,1.65Z"/><path class="cls-76" d="M504.18,44.58a1.1,1.1,0,0,1,0-.11c0-.55.08-3.34-.89-4.64a22.35,22.35,0,0,1-4.92-12.11,12.65,12.65,0,0,1,25.3,0,22.35,22.35,0,0,1-4.91,12.1c-1,1.31-1,4.11-.93,4.65a1,1,0,0,1,0,.1.78.78,0,0,1-.78.78H505A.78.78,0,0,1,504.18,44.58Zm13.34-5.71a20.63,20.63,0,0,0,4.59-11.15,11.09,11.09,0,0,0-22.18,0,20.64,20.64,0,0,0,4.6,11.16,8.92,8.92,0,0,1,1.23,4.92h10.49A8.93,8.93,0,0,1,517.52,38.87Z"/><path class="cls-76" d="M519.84,28.24a.52.52,0,0,0,.52-.52A9.36,9.36,0,0,0,511,18.38a.52.52,0,0,0,0,1,8.31,8.31,0,0,1,8.31,8.3A.52.52,0,0,0,519.84,28.24Z"/><path class="cls-76" d="M504.73,47h12.57a.61.61,0,0,0,0-1.22H504.73a.61.61,0,1,0,0,1.22Z"/><path class="cls-76" d="M504.73,49h12.57a.61.61,0,0,0,0-1.22H504.73a.61.61,0,1,0,0,1.22Z"/><path class="cls-76" d="M504.73,51.07h12.57a.61.61,0,0,0,0-1.22H504.73a.61.61,0,1,0,0,1.22Z"/><path class="cls-76" d="M506.25,53.3h9.53a.61.61,0,1,0,0-1.22h-9.53a.61.61,0,0,0,0,1.22Z"/><rect class="cls-76" x="507.89" y="37.62" width="12.44" height="1.04" transform="translate(392.56 539.13) rotate(-80.6)"/><rect class="cls-76" x="507.4" y="31.92" width="1.04" height="12.44" transform="translate(0.55 82.99) rotate(-9.35)"/><path class="cls-76" d="M508.16,33.65c.43,0,.61-.41.75-.72.06-.13.17-.39.24-.39s.19.26.24.39c.13.3.32.72.75.72s.61-.41.75-.72c.05-.13.17-.39.24-.39s.18.26.24.39c.14.3.32.72.75.72s.61-.41.75-.72c.05-.13.17-.39.24-.39s.18.26.24.39c.13.31.32.72.74.72s.61-.41.75-.72c.05-.13.17-.39.24-.39V32c-.43,0-.61.41-.75.72-.05.13-.17.39-.24.39s-.18-.26-.24-.39c-.14-.31-.32-.72-.75-.72s-.61.41-.75.72c-.05.13-.17.39-.24.39s-.19-.26-.24-.39c-.14-.3-.32-.72-.75-.72s-.61.41-.75.72c-.06.13-.17.39-.24.39s-.19-.26-.24-.39c-.13-.3-.32-.72-.75-.72s-.61.41-.75.72c-.06.13-.17.39-.24.39s-.19-.26-.24-.39c-.13-.3-.32-.72-.75-.72v.55c.07,0,.19.26.24.39C507.55,33.23,507.73,33.65,508.16,33.65Z"/><path class="cls-76" d="M366.12,19.37l-2.6-2.83a1.12,1.12,0,0,1,0-1.52l2.58-2.84a1.12,1.12,0,0,1,.83-.36l17.29-.05h0a1.13,1.13,0,0,1,1.13,1.12v5.67a1.13,1.13,0,0,1-1.12,1.13l-17.29,0h0A1.13,1.13,0,0,1,366.12,19.37Zm17-5.34-15.68,0-1.55,1.72,1.57,1.71,15.68,0Z"/><path class="cls-76" d="M367.89,28.39a1.12,1.12,0,0,1-.33-.79V21.93a1.12,1.12,0,0,1,1.12-1.13l17.3,0h0a1.14,1.14,0,0,1,.83.36l2.6,2.83a1.12,1.12,0,0,1,0,1.52l-2.58,2.84a1.12,1.12,0,0,1-.83.36l-17.3.05h0A1.12,1.12,0,0,1,367.89,28.39ZM387,24.71,385.48,23,369.8,23v3.41l15.68,0Z"/><path class="cls-76" d="M377.25,36.39h0a1.13,1.13,0,0,0,1.12-1.13l0-7.63a1.12,1.12,0,0,0-1.12-1.12h0a1.13,1.13,0,0,0-1.12,1.13l0,7.63A1.12,1.12,0,0,0,377.25,36.39Z"/><path class="cls-76" d="M377.18,13.22h0a1.13,1.13,0,0,0,1.12-1.13V10.9a1.12,1.12,0,0,0-1.12-1.12h0a1.12,1.12,0,0,0-1.12,1.13V12.1A1.13,1.13,0,0,0,377.18,13.22Z"/><path class="cls-76" d="M377.21,22.35h0a1.13,1.13,0,0,0,1.12-1.13V19.35a1.12,1.12,0,0,0-1.12-1.12h0a1.13,1.13,0,0,0-1.12,1.13v1.87A1.12,1.12,0,0,0,377.21,22.35Z"/><path class="cls-76" d="M451.38,25.51a3.33,3.33,0,1,1,3.33,3.33A3.33,3.33,0,0,1,451.38,25.51Zm1.19,0a2.14,2.14,0,1,0,2.14-2.14A2.14,2.14,0,0,0,452.56,25.51Z"/><path class="cls-76" d="M441.05,14a3.52,3.52,0,1,1,3.52,3.52A3.52,3.52,0,0,1,441.05,14Zm1.19,0a2.33,2.33,0,1,0,2.33-2.33A2.33,2.33,0,0,0,442.24,14Z"/><path class="cls-76" d="M450,21.62h0a.59.59,0,0,0,.6-.59V17.54h3.49a.59.59,0,0,0,0-1.19H450a.6.6,0,0,0-.42.17.59.59,0,0,0-.17.42V21A.59.59,0,0,0,450,21.62Z"/><path class="cls-76" d="M454.07,23.28l.18,0a.6.6,0,0,0,.38-.75,11.89,11.89,0,0,0-2.94-4.8,11.33,11.33,0,0,0-.93-.84.59.59,0,0,0-.75.92c.29.24.57.49.84.76a10.7,10.7,0,0,1,2.65,4.33A.59.59,0,0,0,454.07,23.28Z"/><path class="cls-76" d="M450.24,34.72A11.54,11.54,0,1,0,447,12.11a.59.59,0,1,0,.33,1.14,10.37,10.37,0,1,1-4.66,2.88.59.59,0,1,0-.87-.81,11.53,11.53,0,0,0,8.42,19.41Z"/><path class="cls-76" d="M446.8,27.33a.6.6,0,0,0,.42-1l-3.14-3.14a.59.59,0,0,0-.84.84l3.14,3.14A.59.59,0,0,0,446.8,27.33Z"/><path class="cls-76" d="M443.66,27.33a.59.59,0,0,0,.42-.18L447.22,24a.59.59,0,0,0-.84-.84l-3.14,3.14a.6.6,0,0,0,.42,1Z"/><path class="cls-76" d="M257.69,117a7.64,7.64,0,1,1,7.64,7.64A7.65,7.65,0,0,1,257.69,117Zm1,0a6.6,6.6,0,1,0,6.6-6.6A6.61,6.61,0,0,0,258.74,117Z"/><path class="cls-76" d="M266.59,120.76a.52.52,0,0,0,.38-.16l2-2.15a.52.52,0,0,0-.76-.72l-1.64,1.72-4.14-5.05a.52.52,0,1,0-.81.66l4.52,5.51a.53.53,0,0,0,.38.19Z"/><path class="cls-76" d="M267.44,102.34a.52.52,0,0,0,.52-.52V97.66a.52.52,0,0,0-1,0v4.16A.52.52,0,0,0,267.44,102.34Z"/><path class="cls-76" d="M283.34,102.34a.52.52,0,0,0,.52-.52V97.66a.52.52,0,0,0-1,0v4.16A.52.52,0,0,0,283.34,102.34Z"/><path class="cls-76" d="M262.72,107h25.37a.52.52,0,1,0,0-1H262.72a.52.52,0,1,0,0,1Z"/><polygon class="cls-76" points="282.43 109.63 284.85 109.63 284.85 112.05 282.43 112.05 282.43 109.63 282.43 109.63"/><polygon class="cls-76" points="278.24 109.63 280.66 109.63 280.66 112.05 278.24 112.05 278.24 109.63 278.24 109.63"/><polygon class="cls-76" points="274.05 109.63 276.47 109.63 276.47 112.05 274.05 112.05 274.05 109.63 274.05 109.63"/><polygon class="cls-76" points="269.86 109.63 272.28 109.63 272.28 112.05 269.86 112.05 269.86 109.63 269.86 109.63"/><polygon class="cls-76" points="282.43 113.52 284.85 113.52 284.85 115.94 282.43 115.94 282.43 113.52 282.43 113.52"/><polygon class="cls-76" points="278.24 113.52 280.66 113.52 280.66 115.94 278.24 115.94 278.24 113.52 278.24 113.52"/><polygon class="cls-76" points="274.05 113.52 276.47 113.52 276.47 115.94 274.05 115.94 274.05 113.52 274.05 113.52"/><path class="cls-76" d="M271.81,120.63h16.45a.52.52,0,0,0,.52-.52V99.74a.52.52,0,0,0-.52-.52H262.65a.52.52,0,0,0-.52.52V110.4h1V100.26h24.57v19.33H271.81Z"/><path class="cls-76" d="M611.48,31.66a14.87,14.87,0,1,1,14.87-14.87,14.89,14.89,0,0,1-14.87,14.87ZM598.25,16.79A13.23,13.23,0,1,0,611.48,3.57,13.24,13.24,0,0,0,598.25,16.79Z"/><path class="cls-76" d="M601.65,16.79a9.83,9.83,0,1,1,9.83,9.83A9.84,9.84,0,0,1,601.65,16.79Zm1.65,0a8.18,8.18,0,1,0,8.18-8.18A8.19,8.19,0,0,0,603.3,16.79Z"/><path class="cls-76" d="M589.69,39.74l-1.16-1.16a3.29,3.29,0,0,1,0-4.66l5.15-5.15a3.38,3.38,0,0,1,4.66,0l1.17,1.17a3.3,3.3,0,0,1,0,4.66l-5.15,5.15a3.3,3.3,0,0,1-4.66,0Zm5.15-9.81-5.15,5.15a1.65,1.65,0,0,0,0,2.33l1.17,1.16a1.68,1.68,0,0,0,2.33,0l5.15-5.15a1.65,1.65,0,0,0,0-2.33l-1.17-1.16a1.65,1.65,0,0,0-2.33,0Z"/><path class="cls-76" d="M598.92,30.18a.82.82,0,0,0,.58-.24l2.57-2.57a.82.82,0,1,0-1.17-1.17l-2.57,2.57a.83.83,0,0,0,.58,1.41Z"/></g></g></g></g></svg>