<svg xmlns="http://www.w3.org/2000/svg" viewBox="0 0 469.56 230.82"><defs><style>.cls-1{isolation:isolate;}.cls-2{opacity:0.3;mix-blend-mode:multiply;}.cls-3{fill:#00a9a3;}.cls-4{opacity:0.2;}.cls-5{fill:#fff;opacity:0;}.cls-6{fill:#f3f3f3;opacity:0.05;}.cls-7{fill:#e7e7e7;opacity:0.1;}.cls-8{fill:#dbdbdb;opacity:0.14;}.cls-9{fill:#cecece;opacity:0.19;}.cls-10{fill:#c2c2c2;opacity:0.24;}.cls-11{fill:#b6b6b6;opacity:0.29;}.cls-12{fill:#aaa;opacity:0.33;}.cls-13{fill:#9e9e9e;opacity:0.38;}.cls-14{fill:#929292;opacity:0.43;}.cls-15{fill:#868686;opacity:0.48;}.cls-16{fill:#797979;opacity:0.52;}.cls-17{fill:#6d6d6d;opacity:0.57;}.cls-18{fill:#616161;opacity:0.62;}.cls-19{fill:#555;opacity:0.67;}.cls-20{fill:#494949;opacity:0.71;}.cls-21{fill:#3d3d3d;opacity:0.76;}.cls-22{fill:#313131;opacity:0.81;}.cls-23{fill:#242424;opacity:0.86;}.cls-24{fill:#181818;opacity:0.9;}.cls-25{fill:#0c0c0c;opacity:0.95;}.cls-26{fill:#d1d3d4;}.cls-27{fill:#58595b;}.cls-28{fill:#e6e7e8;}.cls-29{fill:#231f20;}.cls-30{fill:#f9ed32;}.cls-31{fill:#f7941e;}.cls-32{fill:#27aae1;}.cls-33{fill:#ed1c24;}.cls-34{fill:#662d91;}.cls-35{fill:#8dc63f;}.cls-36{fill:#f1f2f2;}.cls-37{fill:#c1c1c1;}.cls-38{fill:#e8d8bf;}.cls-39{fill:#cf9e76;}.cls-40{fill:#dfb28b;}.cls-41,.cls-44,.cls-59,.cls-68{fill:none;stroke-miterlimit:10;}.cls-41,.cls-59{stroke:#231f20;}.cls-41{stroke-width:0.44px;}.cls-42{fill:#7e8191;}.cls-43{fill:#9094a0;}.cls-44,.cls-68{stroke:#e9d0a6;}.cls-44{stroke-width:0.13px;}.cls-45{fill:#676b7a;}.cls-46{fill:#c9c9c9;}.cls-47{fill:#d4d4d4;}.cls-48{fill:#3d5554;}.cls-49{fill:#585a60;}.cls-50{fill:#5f6168;}.cls-51{fill:#4e5056;}.cls-52{fill:#f2e5d3;}.cls-53{fill:#ccb396;}.cls-54{fill:#3c2415;}.cls-55{fill:#6d6e71;}.cls-56{fill:#e2ecea;}.cls-57{fill:#eef4f2;}.cls-58{fill:#a97c50;}.cls-59{stroke-width:0.48px;}.cls-60{fill:#badce8;}.cls-61{fill:#d6eaf1;}.cls-62{fill:#bcbec0;}.cls-63{fill:#ace3f7;}.cls-64{fill:#cdeefa;}.cls-65{fill:#95a5a9;}.cls-66{fill:#55696d;}.cls-67{fill:#5c7075;}.cls-68{stroke-width:0.12px;}.cls-69{fill:#3d5155;}.cls-70{fill:#a4b1b4;}.cls-71{fill:#bcbdc0;}.cls-72{fill:#756d5c;}.cls-73{fill:#95a1a9;}.cls-74{fill:#6d6555;}.cls-75{fill:#554d3d;}.cls-76{fill:#a4aeb4;}.cls-77{fill:#3d4c55;}.cls-78{fill:#c49a6c;}</style></defs><title>Ресурс 3</title><g class="cls-1"><g id="Слой_2" data-name="Слой 2"><g id="Object"><g class="cls-2"><path class="cls-3" d="M171.3,26.72c.83,0,.52-1.21,1.67-.89,1.54.58,2.43,1.88,4.58,1.79,1.42-1.07-2-2-.83-2.67.62.23,1.05.66,1.66.88.33-1.54-.47-1.88-.84-2.67,3.44-.19,2.31-4.67,1.69-7.12a8.59,8.59,0,0,1,3.73-.44c-.11-2-2.24-1.76-3.32-2.68,1.3.21.93-1.35,2.49-.89.3-1.35-.71-1.3-.41-2.67,1.49.25,1-1.57,2.51-1.33,1-.37,3.59.88,3.34-.88.38-1.62-1.81-.45-2.09-1.35-1-.13-.78-1.54-2.09-1.33-1.81-.27-3.75,1.61-4.59.9.26-2.25,3.67-1.13,4.16-3.12C182.1.95,180.27.69,178,.9c-1.34-.51-3-1.17-3.74,0-.35-.65-1.33-.64-2.08-.9-1.68,1.18-5.77-.21-7.49.9-1.93,0-4.24-.36-5,.9,0,1,1.14,2.88.41,3.1-3-.5-4.7.31-7.48-.44-4.18.61-6.13,3.54-10.43,4-.4,1.61,1.87.36,1.65,1.79-1.2,1.07-3.43,1-4.56,2.22-1-.58-2.38-.49-2.92,1.33,1.33-.38,1.29.7,2.08.88,0-1.18,2.09-1.18,2.09,0,1-.26,2.83-2,2.91.46-1.78.18-4.28-.44-5.42.44.38,1.67,2,2.05,3.34,2.66,1.29.33.78-1.22,2.08-.88a6.06,6.06,0,0,0,5,1.34,5.37,5.37,0,0,0,.84,4c-.14,1-.66,1.68-.41,3.11,1.66.87,1.92-2,2.93-.43.23,1.58-1.26,1.35-2.51,1.33.35,2,3.17,1.37,3.75,3.12A22.5,22.5,0,0,0,150,32.06c1.17.58-1.29.92-.83,2.23,3,2.15.67,7.24,2.9,10.24H155c1.21.06.73,1.89,2.08,1.78.42-.89.72-1.9,1.68-2.24-.5-3.36,2.08-3.4,1.67-6.67,1.06,0,.58-1.73,1.65-1.78,1.59.9,1.59-1.06,3.34,0a15.74,15.74,0,0,1,2.09-1.77c2-.54,2.9-2.26,5-2.67.17-1.61,3.68-2,2.5-3.57C174.21,28.63,172.46,26.84,171.3,26.72Zm4.18-1.77c-1.11-.8,0-2.94,1.25-2.66C176.51,23.37,175.6,23.75,175.47,24.94Zm2.91-21.37c0,1.32-.94,1.65-1.66,2.22-1.28-.86-3.16-1.06-5.43-.89C172.71,3.07,176.61,3.85,178.38,3.57Z"/><path class="cls-3" d="M119.63,10.26v2.65c1.27-.31,1.51.46,2.48.45.19-2,2.71-3.92,4.18-3.1.63,1.86-2.16.06-2.08,1.32,1.26.67-1.44.8-1.25,1.78,1.08-.27,1.48.18,1.25,1.33-1,0-1.23-.77-2.51-.43.06,1.26-1.4.87-.83,2.67,2.49-.34,4.29-.62,5.42,1.32-3.31.77-5.44-1.76-7.5-.88-.33,2.14,2.52.87,2.51,2.69,3.14-.48,7.36,2,8.32-1.35,1.09.13,1.79-.17,1.67-1.34.31-1.21-1.94.33-1.67-.89h2.93c0-2.37,2.54-2,2.08-4.9,2.16-.07,2.36-2.22,5-1.79A2.86,2.86,0,0,1,142.54,8c.53-1.1-.92-2.15,0-2.23,1.75-.85,4.31.45,5-2.22,0-.73-1.16-.24-1.24-.89-6.83,1-16.13-1.29-23.36,1.78-.56,2.69,1.8,2.24,2.08,4-2.71.23-1.89-3.34-5-2.69-.14.62-.61.86-.42,1.79-.67,0-1.45-.07-1.26.89C118,9.9,119.45,9.4,119.63,10.26Zm8.75,8c.21.23-.31.59-.42.46S128.25,18.13,128.37,18.25Z"/><path class="cls-3" d="M222.14,9.35c.22-1.25,2.18-.64,1.68-2.66A77,77,0,0,0,213,5.79a2.71,2.71,0,0,0,.41,1.79C216,8.49,218.18,9.89,222.14,9.35Z"/><path class="cls-3" d="M205.9,11.59c-.05,1.1-.78,1.38,0,2.23,1.71-.09,1.77-2,3.74-1.79-.1,2-2,2-2.07,4a3.05,3.05,0,0,0,2.92.89c-.2,1.39.88,1.42,2.08,1.32a45.22,45.22,0,0,1,1.25-4.89c1.1,1.18,1.74,2.9,4.59,2.23.37-3.39-2.2-3.6-3.33-5.33-.12,1-1.12-.52-1.69-.47a1.93,1.93,0,0,1-2.05-.88c1-1.18-.35-2.61-2.1-2.23-1.23.72.66,2.31-.42,2.66-.89-2.11-4.86-4.19-5,0C204,10.65,205.6,10.41,205.9,11.59Z"/><path class="cls-3" d="M248,8.47c0-2.81-3.87-1.86-3.74.44C245.66,10.3,246.44,8.3,248,8.47Z"/><path class="cls-3" d="M271.35,11.14c3.28-.59,6.71,1.55,7.49-1.34-1-1.72-4.79-2.45-7.07-1.32C270.83,8.53,271.56,10.35,271.35,11.14Z"/><path class="cls-3" d="M355.54,37.85c1-.15.78-1.54,2.07-1.33,2.18,0,1.89,2.74,4.59,2.2.55-.79-.37-2.23.42-3.54-1.11-.54-2.73-2.93-3.74-.89a3.13,3.13,0,0,0-.41-2.23c-2.27-.87-3.47-2.85-7.09-2.23-.48-.83-1.61-.95-2.09-1.78-2.72.39-3.31-1.53-6.26-.9-.57,1.31,1.15,2.28,0,2.68-1.2-.19-1-1.93-2.07-2.22-1.23,1.38-3.48.13-5.87.89-1.49-1-1.38-3.84-4.55-3.11-.6.1-.14,1.33-.84,1.33a46.23,46.23,0,0,1-5-2.65c-.19.39-.36.78-.83.88.52-1.75-1-1.33-2.1-1.33,1-1.06-.45-1-.82-1.79-2,.78-1.87-.25-3.75-.43-.15.59-1.06.36-1.67.43-.42.83,1.24,1.49,0,1.79-3.58-.61-8.13.79-11.27,0-1.05-.28-1.45-1.65-2.49-1.34-1.93.47-3.22-.46-4.6-.89-.48-.18-1.15.1-1.65,0-1-.21-1.84-1.42-4.16-.91.15-1.14,1.22-1.34,1.24-2.66-.59-1.31-1.92-1.79-2.49-3.12-1.26.59-3.19.47-5,.46-1-.37-.87-2-2.5-1.79-1,.45-1.33,1.53-1.25,3.12-2.07-.72-1.33,1.56-2.91,1.33-.8-.18-.34-1.73-1.67-1.33a5.46,5.46,0,0,1-5,1.77c-.74.57-1.11,1.51-2.5,1.35-.59.56-.19,2.17-1.27,2.22-.86.28-2.88-.72-2.47.89,0,1.63,2.42.65,2.07,2.68-1.53-.48-1.94-2.08-4.18-1.78,0,1.16.24,2.61-.84,2.66a4,4,0,0,1-.42-2.66c-1.63-.39-.68,1.93-2.49,1.33-.65-.8-.57-2.38-2.5-1.79a39.67,39.67,0,0,1-4.18,4.9c-2.7.21-2.5-.83-5.41-.9-.67,2.2,2.16.68,1.66,2.68-1.74-.43-3.61.23-6.25,0-1.88.81-2.9,2.54-5,3.11V30.27a3.25,3.25,0,0,1-2.5-.44c.1,2.49,0,4.76-2.5,4.45.14,1.65-1.53,1.33-2.5,1.78s.74,1.33-.42,1.78c-2.44.52-2.58-3.22-2.49-4,1.94,0,4.07-.2,5.42.44,1.11-2.79-2.34-4.23-5-4.45a4,4,0,0,0-3.32-1.78,7.83,7.83,0,0,0-2.09-2.66h-3.76c-1.13.84-2.19,1.8-3.31,2.66-.19-.65-.54.18-1.27,0-1.49,1.68-3.35,2.94-5,4.46a10.12,10.12,0,0,1-2.5,4.88c-.08-.52-.77-.37-1.25-.44v1.76c-2.65.18-2.92,2.82-3.76,4.91.84,1,1,2.84.84,4.89.4,1.2,2.63.48,3.34,1.35-.91,1.31-1.67,1.8-1.67,3.12.89-.21.78.62.83,1.33-1.48,0-2.42.69-3.74.87-.38.8-1.18,1.14-.84,2.68-2.37-.75-.93,2.56-2.92,2.22.07.53-.08.79-.43.89-1.83-.19-2.2,1.21-3.33,1.79-1,.24-2.12.38-2.05,1.77.54.61,1.8.43,2.9.45-.2,2,1.93,1.51,1.68,3.57-.43.59-.42,1.66-1.27,1.77-1.94-1.06-3.66.4-6.24,0-.42,1.47.93,4.85-.85,4.9.31,1.31,1.27,1.92.85,4,1.93-.44,2.52.58,3.76.88,1.55-.85,1.76-.85,3.32,0,.95-1.8,2.38-3.1,2.08-6.23,1.83-.57,1.52-3.42,3.75-3.56,1.77,1.11,2.48-.31,4.18-.44-1.18,1.73-.59,4.51,0,6.68,2.64-.25,1-2.52,1.24-4.9-.42,0-.52-.78,0-.89v.89c.86.13.83,1.19,1.27,1.79,2,0,3.28.91,3.73,2.67-.07,1-1,.95-2.09.88-.05,1.56,1.48,1.4,2.09,2.24-.2-2,1.13-2.36,2.09-3.11.23-1-.79-.63-.84-1.35.77-1.39,1.41,1.5,2.11,0-1.14-2.35-6.33-2.75-5-6.22,1.24,2,3.59,3,5,4.9.23.34.59,1.39.82,1.78.32.55,1,1.06.84,1.77v2.67c.54.61,1.81.44,2.92.45.7-1.53-.75-3.72.4-5.34h1.25c-.47,1.76-.07,1.66-.4,3.55.93-.15.56,1.29,1.24,1.79a5.42,5.42,0,0,0,5.41,0c1.25.65-1.09,2.31.83,2.23,1.72.33.09-2.88,2.1-2.23V82.8c-1.23.78-.38,3.77-2.1,4A34.6,34.6,0,0,0,218,85c-1.2.34-1,2.19-2.08,2.68-1.92-2.11-5.71-2.23-7.49-4.46.32-1.54-.48-1.89-.84-2.68,1-.12.95-1.19.4-1.78a13.67,13.67,0,0,0-6.25,1.33c-3.38-.21-6.31.06-7.93,1.8a2.3,2.3,0,0,0-2.48-1.35c-.35,1.57-1.85,1.89-2.91,2.68-1.13,2.09-.71,4.82-1.66,6.67-.62,1.17-2.86,2.38-3.77,3.57a9.93,9.93,0,0,1-2.09,5.79v11.57a15.4,15.4,0,0,1,3.35,6.22c1.92,1.21,3.21,3.11,5.83,3.56a20,20,0,0,1,5.83-.44c.86-.72.81-2.4,2.52-2.23.74.07.24,1.51.84,1.77,1.92-.28,2.65.71,4.15.9.71-.39,1.06-1.24,2.5-.9.42,3.44-.89,5-.84,8,1.19,2.28,3.22,4,2.51,7.12,1.1,1.49,1.18,4.08,1.67,6.23-1,2-.79,5.36-1.67,7.56a14.47,14.47,0,0,1,3.76,7.12v4c1.85,2.31,1.8,6.65,3.74,8.91,4-.31,6-2.75,9.58-3.56a8.52,8.52,0,0,1,3.74-5.35c-.21-1.72.75-2.17.41-4,.75-.4,1.07-1.24,2.51-.89,0-5.13,1.75-8.49,5-10.23a42.77,42.77,0,0,0,0-12.46,23.53,23.53,0,0,0,2.06-5.79,36.07,36.07,0,0,1,2.93-2.23c2-3.07,3.78-6.36,5.84-9.34.32-1.67.87-3.94-.43-4.9-1.78-.27-1.68,1.46-3.31,1.34h-3.76c-.2-3.05-2.28-4.1-3.77-5.79.37-2.93-2.47-2.4-1.66-5.8-.71-1-2-1.42-2.49-2.66.39-1.34-.6-3.46,0-3.56,1,.76,2.11,3.1,1.66,4,1.75,1.87,2.91,4.31,4.59,6.23,1,1.86.84,4.63,2.93,6.23,2.9-1,4.94-3,8.32-3.57.58-.26.07-1.71.82-1.77,1.81-.31,2.57-1.73,4.18-2.24-.3-1.94,1.22-2,1.26-3.55-.72-1.6-2.86-1.7-2.51-4.45a3.55,3.55,0,0,0-3.33.87c-.34-1.68-1.88-2.13-1.68-4.44-1.35.12-1.2-1.37-2.07-1.78.62-.23,1-.65,1.66-.9,2.3,1.54,1.61,6.28,5.84,5.79.17.86,1.18.82.83,2.23,2,.22,2.31-1.38,4.18-1.33.43.28.43,1,1.25.9,2.9-.47,3.62,1.46,5.39,2.21-.69-.15-.78.35-.81.9.43.85,1.91.6,2.51,1.34-.22,1.4.74,1.57.39,3.11,1.27,1.48,1.8,3.73,2.51,5.79a6.53,6.53,0,0,1,2.11,3.11v2.69c.52.62,1.8.43,2.9.44.55-2.84,2-4.64,1.66-8.46H278v-1.79c1.58.66.81-1.21,2.08-.88-.12-2,1.52-2.24,2.09-3.57a7.79,7.79,0,0,1,3.75-1.78c.95,1.22.95,3.44,2.51,4,.15,1-.76.94-.44,2.2.47,1.45,3.32.33,4.19,1.33-.56.94.21,1.33-.43,2.69a3.29,3.29,0,0,1,2.08,2.67c-.15.84-1.19.8-.83,2.23.13,1.34,1.29,1.58.83,3.56a45.64,45.64,0,0,0,6.25,5.34c.11-2.94-2-3.52-2.07-6.24a8.41,8.41,0,0,1-2.93-3.11c.19-1.44-.55-3.84.83-4,.91,1.27,1.57,2.8,3.36,3.12a2.64,2.64,0,0,1,.39,1.78c4-.57,5-4.42,4.58-9.78-.53-.45-1.53-.44-2.08-.89.53-2-2-1.83-.83-3.12s1.09,1.47,2.91.9c.3-1.91,2.42-1.89,4.59-1.79,1.32-2.14,3.1-3.8,3.74-6.68.68.13.71-.42,1.25-.43.7-1.81-.09-5.15,1.26-6.23-.89-.41-1.26-1.32-1.26-2.69-.7-.56-1.62-.92-1.66-2.22-.18-1.06.77-1,.41-2.22.86.13,1.31-.09,1.25-.91,1.2-.56-1.88-2.65.84-2.65.47,1.42,1.92,1.79,2.51,3.12-.41,2.35.78,3,2.09,3.56,2.49-1.94-.09-6.83,1.24-10.24a10.54,10.54,0,0,1,3.33-1.79c1-2.08,1.81-4.28,3.31-5.79.57-3.59-.95-7.28,0-9.79-.57,2.54,1,2.84,1.26,4.45.08,2.76.21,5.43,2.09,6.23.78-.79-.34-1.13,0-2.66,1.14-.05.84.74,1.66,0,.08-1.41-1.1-1.51-.82-3.13-1.51-.3-1.9-1.82-2.51-3.11-.15-1.6.15-3.72-1.24-4-.87.11-.11,2-1.24,1.79-.71-3.28-3.54,2-4.61-1.33.29-1,1.06-1.53,1.68-2.23.48-1.42.31-3.51,1.67-4,1,1.1.76-.65,2.06-.44,2,.29,3.78,1.17,6.27.9-.15.76.32.85.82.88.55-.61,1.83-.42,2.93-.45.21-1.41-.74-1.56-.41-3.11.84-.12.81-1.2,1.66-1.34.86.14.82,1.21,1.67,1.34-.19-1,1.24-2.46,1.65-1.34-1.33,2.86-3.29,5.08-3.74,8.9.27,1.2,1.19,1.7,1.68,2.68.18,1.7.49,3.33,1.66,4,1-1.12,1.65-2.69,2.92-3.57-.38-2.2,1.34-1.88.44-3.55.1-.9,1.1-.88,1.23-1.78-.61-.53-1.87-.4-1.67-1.79.41-3.91,3.14-3.06,6.26-2.68.6-.68.54-2.07,1.25-2.66,2.43-.19,4.26-1.41,5.82-1.34C357.6,39.5,355.54,39.77,355.54,37.85Zm-140,4.9a5.42,5.42,0,0,0,3.31,1.78V49c-.93-.18.23-2.62-1.65-1.78-.92,1.54-.34,4.67-1.66,5.79-1.39.14-2.42-.21-3.36,0-1.16.25-1.4,1.29-2.5,1.33.13-.55-1.19-1.54-1.23-.45-1-.13-1-1.21,0-1.34a6.7,6.7,0,0,1-1.67-4.45c2.08.19,1.28,6.27,5,4.45.94-1.81,1.58-3.94,2.49-5.8a11,11,0,0,0-.84-2.67c.25-4.18,3.22-5.47,4.58-8.45.5-.06.76.1.83.45C218.48,39.13,215.11,38.92,215.5,42.75Zm4.58,3.11c0-1.34,1.47-1.1,2.5-1.33C222.61,45.91,221.32,45.85,220.07,45.86Zm3.33-17.36c-.22-.24.3-.57.41-.45S223.52,28.63,223.41,28.5Zm7.51,64.11c-.22-.24.3-.58.41-.46S231,92.73,230.91,92.61Zm.41-55.21c-.22-.23.29-.56.42-.44S231.43,37.52,231.32,37.4Zm30.84-7.12c-.79-.18-1.79-.14-1.67-1.33-1.25-.09.39-1.85,0,0C260.79,29.66,262.53,28.84,262.16,30.27Zm25.82-8c-.2-.23.32-.59.44-.46S288.11,22.4,288,22.28Zm1.27-.46c-.21-.23.31-.56.42-.43S289.38,21.95,289.26,21.82Zm1.25-.89c-.22-.22.3-.58.42-.45S290.62,21,290.51,20.93ZM309.27,77c.59-.85.93-2,2.51-1.77,0,.69-.2,1.69.4,1.77C311.55,78.35,310.36,76.65,309.27,77Z"/><path class="cls-3" d="M161.3,129.55c-.73-.83-1.22.19-2.08.44-.66-1.52-2.27-2-3.74-2.68h-2.92c-.75-1.29-3.54-.38-3.76-2.21-1.11,0-2.46.24-2.49-.89,1.2-2.08-1.24-7.76-5-5.77a5.11,5.11,0,0,1-2.5-4c-2.18-.65-3.73-2-5.85-2.67-.54.17-.65.78-1.24.89-.56-1.6-2.59-1.68-2.93-3.55-1.33-.4-.86,1.14-1.66,1.34-1-.31-1.11-1.48-2.08-1.78-.38.77-.76,1.54-2.08,1.33-.64,1.85-2.31,2.57-3.32,4,.09-1.47-.51-2.15-1.68-2.23-1.07.47-1.55,1.6-2.93,1.78-1-2.17.44-4.23,0-7.13-.75-1.54-3.52-1-5-1.77.41-1.94,1.62-3,1.25-5.79a10.74,10.74,0,0,1-4.16,0c-.77,1-.4,3.13-1.67,3.55-5.58.32-2.09-7.63-3.33-11.12,1.48-.37,2.35-1.33,3.76-1.77,2.27-.22,2.81,1.43,5,1.32,0-.63-.08-1.25.42-1.32,2,.1,4.69-.57,5,1.32-.18,2.58.92,3.79,2.92,4a8.51,8.51,0,0,1,0-4.46c-.47-.67-1.19-1.09-1.25-2.23a6.68,6.68,0,0,1,5.41-5.34,3.21,3.21,0,0,0,0-2.67,2.7,2.7,0,0,0,2.11-.45c-1-2.44,1.35-1.9.82-4.9,1.39-.6,2.71-1.24,4.16-1.78.22-1.4-1.26-1-.83-2.67,1.53-1.35,3.84-1.85,5.86-2.67.29,1.21-.85.9-.85,1.78,1.67-.74,3.44-1.37,4.59-2.67-1-.7-3.1-.28-2.92-2.23.23-1.24,1.6-1.24,2.51-1.77.17-1.08-.77-1-.43-2.23,2,1.47,4.37-2.15,5.83-1.34-1,2.39-2.94,3.67-3.74,6.23,1.54.32,1.79-.76,3.32-.44,0,.69-.18,1.7.42,1.78.42-1.1,1.6.61,2.92,0-.2-1-.82-2.27,0-3.12-1.52-.16-1.9-1.52-2.5-2.68a39.78,39.78,0,0,0,0-5.79c-.8-.82-1,0-2.08,0,0-2.11-1.92-2.1-2.08-4a2.63,2.63,0,0,0,.41-1.78c-1.6-1-1-4.27-3.34-4.46-.21.65.5,2.3-.41,2.24-.86-.27-2.74.56-2.92-.46V42.3c-2.23,1.07-1.82-1-3.76-1.33-1.09,1.23-.9-.52-2.07-.44-1-.18-.9.81-2.09.44.63,4.44-1.13,6.93-.42,10.24-.71.13-2.07-1.26-2.51,0,.42,1.27,1.39.29,1.68.89-1.46,1-1.49,3.45-2.08,5.35-1-1.36-1.14-3.54-1.66-5.35-.85-.89-.83.21-1.67.45-.37-1.29-.62-.48-1.68-.45A10.54,10.54,0,0,0,113.38,49c.66-2.21-1.47-1.42-1.29-3.12.91.22.81-.63.85-1.33,1.38-.76,2-2.34,3.33-3.12.92-1.56,1.56-3.39,3.77-3.56,0-.8-.52-.94-.42-1.78a29,29,0,0,0,6.24-1.78,11.89,11.89,0,0,1,.42-4.45c-.49-.65-1.58-.7-2.08-1.33,1.66-.15,3.08,0,3.75.88.78-1.35,2,.52,3.34,0-.58,2.27,1.9,1.24,1.67,3.13-.41,3.26-4.94,2.12-5.42,5.33.69,1.06,2.43,1,4.18.88,2.59,1.25,3.61,4.17,7.09,4.46-.93-2.3.7-2.24.42-4.89C139,37.14,138,37,138,35.62c1.59.1,2,1.41,3.34,1.78-.12-1.16-.15-2.22,1.25-1.78-.29-1.37.43-1.62.41-2.67-1.13.31-.79-.91-1.25-1.33A19.37,19.37,0,0,1,138,30.27c.12-.91,1.14-.86,1.27-1.77-.54-1.06-1.84-1.32-1.69-3.11h-3.74c.2-1.41-1.12-1.18-1.25-2.24-1.78-.25-2.76.32-4.17.46.25-2.76-3.29-1.88-3.76-.46.16-1.66-.33-2.61-1.67-2.68-2.15,1.42-4.66,6-2.08,8.47.61.25,2.14-.5,2.08.44a10.75,10.75,0,0,1-2.08,3.13c-1.06-1.1.88-1,.43-2.68a7.52,7.52,0,0,1-3.35-4c-1.59.21-1.32-1.54-3.32-.88.15,1.06-.79,1-.44,2.21,1.43.6.9,4.14,0,4.91a2.21,2.21,0,0,1-.81-2.23c-2.1-.32-2.1,1.65-3.78,1.78-1.55-.71-3.25-1.26-4.15-2.67,1.86-.34,2.51.59,4.15.44.92-.92-.19-1.27,0-2.67,2.31-.5,3.23-2.49,5.41-3.1a9.69,9.69,0,0,1-.82-3.56H108c-.92,1.24-3,1.24-3.35,3.1-.21-.66-.61-1.1-.83-1.76-1.1,0-2.6.41-2.08-1.33,3.09.68,6.77-1.62,9.58-2.69,0,2.05,3.57,1.54,4.17.45a18.32,18.32,0,0,0-.82-3.12c-2.46.35-3.66,2.05-6.26,2.24V14.26a1.47,1.47,0,1,0-1.25,2.67c-2.39.31-3.73-.49-5.82-.45.62,2.3-1.92,1.23-2.09,2.67,1,.57,1.28-.22,1.66.45a1.76,1.76,0,0,1-1.66.87c-.67-2.54-4-2.29-7.1-2.22a6.42,6.42,0,0,1-2.51,4.46c-.07,1.4,1.09,1.5.85,3.11C92.51,26,93.54,25,95,24.49c-.85,2.41,2.29.54,2.52,1.79s-2-.32-1.68.88c0,2.41,4.56-.11,3.77,3.12,1.56-1,2-.7,3.74,0h.42c-.13-.54,1.2-1.53,1.25-.44-.07.53-.66.5-1.25.44.11,1.12,1.79,2.53,0,3.13-.49-.09-.34-.83-.42-1.34-3.7-.35-5.57-2.65-10-2.23-1.27-.42-1.31-2.16-2.91-2.22-.2,1.26-1.3,1.57-2.51,1.77a3.13,3.13,0,0,0-.4-2.23c-1.61.1-1.61,1.89-3.33,1.79-1.59.34-2-.54-3.34-.44-.46.11-.27.88-.83.88-.4,0-.34-.54-.4-.88-1,.15-1.58.7-2.94.44-3.32-2.22-9.74-1.16-13.32-3.12-3.12,1.45-7.16,1.87-9.17,2.23-.95,1.72.76,1.76,1.23,3.12,1.6-.22,2.61.18,2.93,1.34-1.69-.62-1.5.79-2.09,1.34-.76-.39-1.13-1.16-2.07-1.34-1.59,1.72-5.39,1.08-6.67,3.1,2.3-.08,3.11,1.42,3.34,3.58,2.21-.86,3.87.12,5.84-.48-2,3.93-10.71.76-10,7.58,1.39,1.07,1.72,1.22,1.26,3.57.75.06.87-.55,1.66-.45,0,.71-.2,1.7.42,1.78.59-1.42.19,1.82,1.26,1.33A2.17,2.17,0,0,1,55,51.65c-1.8,1.5-2.45,4.2-4.57,5.34-1.92.64-2.57,2.6-5,2.66.34,1.43-.66,1.38-.84,2.23,1.91.25,2.6-.79,4.58-.45.47-1.28,1.77-1.65,3.34-1.79,1.56-3.06,4.28-4.91,6.67-7.12H60c.43-.42.12-1.63,1.24-1.33,0-.27.07-.53.41-.44,0,.27,0,.53-.41.44.18,2-1.12,2.36-1.67,3.57,3.43.4,4.26-2,7.09-2.23a19.16,19.16,0,0,0-.42-4.9c1.91.42,2-1.11,3.73-.9a11.85,11.85,0,0,1,2.93,3.13c2.65.89,4.92,2.19,4.58,6.23,2-.29.1-2.46,1.69-2.67.09,3.77-.13,7.83,1.23,10.24-1.26,1.16-.43,1.65,0,3.12,0,.88-1.13.55-.81,1.78a81.88,81.88,0,0,0,0,12.9c1.11.74,1.84,1.89,2.9,2.68,1.15,1.72,1.07,4.77,2.5,6.22-.48.08-.35.81-.42,1.34,1.74.67,2.14,2.75,2.94,4.45,1.27-.34,1.2.78,2.47.43.06-1.89-.81-1.48-.82-4-.24,0-.47-.38,0-.46v.46c.88-.23.78.63.82,1.32a14.7,14.7,0,0,1,3.35,3.56c-.3,3.14.8,4.78,1.65,6.68,3.44.91,5.47,3.19,9.59,2.21a17.37,17.37,0,0,0,1.68,3.12c1.57-.34,2,.54,3.31.45a4.61,4.61,0,0,0,2.09,2.22v1.34c2.41.27,2.9,2.56,5,3.11.42-.59.4-1.65,1.24-1.76a18.64,18.64,0,0,0,1.25,4c0,.89-1.13.59-.83,1.79.19,2.29-1.34,2.74-1.67,4.46-.81,3.11,1.68,4.8,0,6.23.73.85,2.05,1.06,2.92,1.79-.34.64-1.34.63-2.09.88-.3,3.59,1.53,4.9,3.75,5.8.16,1.06-.77,1-.43,2.22,1.56,1.3,2.11,3.67,4.6,4,.76,2,2.08,3.4,2.07,6.22-.42.59-.39,1.64-.81,2.22a2,2,0,0,1,.81,1.79c-1.12,2,.51,4.34,0,7.12-2.25,1.44-1.21,6.42-2.07,9.35.61,1.23,1.7-.77,2.07.45.38,2.18-1.42,2-2.07,3.1-.53,1.45,1.32.35.82,1.79-.8,1.08.45,2.15-.42,3.55.41,3,1.81,4.58.86,7.13,1.23,1,1.1,3.55,2.49,4.45-.06.79.49.94.4,1.78a7.42,7.42,0,0,1,2.5,1.33c1.56-.27,4.3.74,4.58-.89a3.82,3.82,0,0,1-2.49-1.78c.31-1.5-1.69-.56-1.25-2.22-.15-2,1.21-2.29,1.25-4a1.62,1.62,0,0,0,1.68-1.77c.21-1.58-1.47-1.09-1.25-2.68,1.12-1.37,2.83-5.77,0-6.23,2.79.76,2.69-1.55,3.33-3.11,2.24.16,3-1.25,4.59-1.79.28-2.08-.67-2.86-.84-4.44H145c0-.45.51-.36.84-.46.23-1.08.36-2.28,1.67-2.22-.15-2.52,1.57-3.06,2.49-4.46v-3.1c.79-.79,1.3-1.88,2.08-2.68a33.18,33.18,0,0,0,3.75-1.33c.19-2.85,2.21-5.33.84-8.46a2.21,2.21,0,0,0,.83-2.23c.67.14.73-.41,1.26-.43.16-1.47,1.23-2,1.67-3.11,1.11-1.16-.06-2.15,1.23-2.68-.28-1.37.42-1.63.42-2.68A10.87,10.87,0,0,0,161.3,129.55ZM142.13,55.66c.2.23-.31.55-.43.44S142,55.52,142.13,55.66ZM110,20.93c1.28.43-.46,1.2-.43,1.78C108.34,22.28,109.8,21.21,110,20.93Zm-1.66,2.23c1.32-.2,1.47.83,2.91.46,0,1.76-1.63,1.82-2.91,2.21Zm-12.91.91c-.23-.25.27-.59.39-.45S95.56,24.17,95.45,24.06ZM86.69,88.14c.08-.5.4-.23.4,0C87,88.66,86.69,88.4,86.69,88.14Zm.4.9c1,.15.95,1.38,1.67,1.78C88.24,91.94,86.74,90.34,87.09,89Z"/><path class="cls-3" d="M246.34,27.61c-.61-2-2.56-2.62-2.1-5.79,2.95-.27,4-2.51,6.25-3.57,2.63.29,4-.79,4.19-3.1h-2.1c-.1.35,0,.88-.43.88-3.13.37-5.45,1.6-7.91,2.67.21,2.29-2,2-1.67,4.44-.51,1-1.55,1.31-1.65,2.67a29.8,29.8,0,0,0,4.14,2.68A1.17,1.17,0,0,1,246.34,27.61Z"/><path class="cls-3" d="M315.93,19.6c1-.72,1.49-2,2.51-2.68-1.59-.22-1.92-2-3.35-1.78-.18,0-.39,1-.83.88h-2.48C311.22,19.28,314.75,18.18,315.93,19.6Z"/><path class="cls-3" d="M183,39.62c0-1.13,1.56-.7,2.09-1.33.44-2.26-1-2.55-.83-4.45-1.81.59-2.46-.29-4.17.44-1.13-.27-1-1.86-2.51-1.77.51,2.15-1.66,1.49-1.66,3.1,1.16.37,1.08-.62,2.07-.44-.22,1.08-1.6,1-1.24,2.67,2.08-.58,1.63,1.53,2.92,1.77C180,38.71,182.54,39.17,183,39.62Z"/><path class="cls-3" d="M125.86,39.62c-1.65-.47-.56-1.12-1.66-2.22-1.26.32-1.23-.76-2.51-.44-.59.85-.21,2.71-2.07,2.24,0,1.55,1.36,1.78,2.9,1.76C122.39,37.48,125.37,42.42,125.86,39.62Z"/><path class="cls-3" d="M199.25,55.66a7.38,7.38,0,0,1-1.69-1.33c.52-2.64-2.76-3.06-1.24-5.35a7.14,7.14,0,0,1-1.68-1.34c.61-.38,1.32-.66,1.25-1.78-1.52-.14-2.32.5-3.32.88.31,2.43-.66,3.46-.42,5.8a7.12,7.12,0,0,0,2.07.89c.17,1.58-1.4,2.45-2.07,1.77a5.44,5.44,0,0,0,.84,4c-.73.41-2.24,0-2.1,1.34a29.18,29.18,0,0,1,6.67-.45C197.9,58.19,197.67,56.94,199.25,55.66Z"/><path class="cls-3" d="M188,57.44c1-.48,2.53-.3,3.35-.9-.44-1.86-.1-2,0-4h-2.08c0,2-.95.56-1.67,1.34C187.61,55.16,187.33,56.78,188,57.44Z"/><path class="cls-3" d="M330.93,70.34c.8.06.3,1.46,1.26,1.33.92-1.09.78-3.31,2.5-3.55-2.19-.33-3.55-1.55-5.83-1.78.3,2.12-.47,3.06-.42,4.91C329.57,72.44,329.47,70.09,330.93,70.34Z"/><path class="cls-3" d="M321.36,84.15c-.07,1.56,1,1.91,1.66,2.65a4.29,4.29,0,0,1,2.51-3.11,1.94,1.94,0,0,1,1.24.46c1.32-1.72,4.08-1.88,5.42-3.57-.07-3.17-.92-5.55-.82-8.9h-1.68c.51,2.09-.21,3.11.43,5.34-.33.11-.48.38-.43.91a11.4,11.4,0,0,0-3.75,2.65c-1.47.82-4.12.34-4.16,2.68-.19,1.23,2.27-.35,2.1.89Z"/><path class="cls-3" d="M219.65,80.58c.12,1.25,1.38.36,2.49,1.35.3-1.67-.64-2-2.07-1.8C220.14,80.51,219.9,80.55,219.65,80.58Z"/><path class="cls-3" d="M312.59,95.73a4.34,4.34,0,0,1,1.25,2.66c1.74-.1,1.6-2.18,1.68-4C314.48,93.4,313,94.7,312.59,95.73Z"/><path class="cls-3" d="M119.63,94.39v1.78h1.67A1.62,1.62,0,0,0,119.63,94.39Z"/><path class="cls-3" d="M124.2,96.59a3,3,0,0,0-.42-2.21h-1.26C122.37,95.9,122.66,96.92,124.2,96.59Z"/><path class="cls-3" d="M124.62,96.16v2.23c.87.18,1.11-.3,1.67-.45A1.61,1.61,0,0,0,124.62,96.16Z"/><path class="cls-3" d="M123.79,103.28c1.5-.26,2,.51,2.93.9,0-1.28,1.72-.81,2.89-.9-.6-2.95-2.89-2.55-5.41-2.67.31-1.21-.85-.9-.85-1.78-.9-.5-2.29-.52-2.49-1.78h-6.24c-.19.84-.9,1.12-.85,2.23,1.7.17,1.69-1.47,3.76-.9,1.76.37,2,2.38,3.75,2.67,1,.28,3-.56,3.32.45C123.09,101.55,123.57,102.15,123.79,103.28Z"/><path class="cls-3" d="M127.95,98.39c-.13-.61-1-.37-1.67-.45C125.4,99.58,128.41,99.95,127.95,98.39Z"/><path class="cls-3" d="M314.27,103.28a8.5,8.5,0,0,0,2.5,2.67c.53-1.38,1.94-1.78,1.68-4C317.31,100.33,314.21,101.07,314.27,103.28Z"/><path class="cls-3" d="M304.25,104.62c1.17-.25,1.17-1.73,1.68-2.68a2.25,2.25,0,0,0-1.68-.44C303.48,103.24,303.71,101.87,304.25,104.62Z"/><path class="cls-3" d="M119.19,102.38v1.8c1.4-.48,1.43.14,2.91-.45C122.39,101.95,120.53,102.46,119.19,102.38Z"/><path class="cls-3" d="M130.44,104.18c1.51.11,2.89.1,2.51-1.8h-2.51Z"/><path class="cls-3" d="M174.21,104.18c0,.87-1.13.56-.82,1.77H175C175.18,104.93,174.94,104.27,174.21,104.18Z"/><path class="cls-3" d="M317.61,111.3c.86,1,1.18-.23,2.49,0-.14,1-.89,1.92.42,2.22.59-1.3,1.75-2,3.74-1.78.39-2-1.33-1.84-2.09-2.67.11-1.46-.49-2.15-1.66-2.23-.59.58-.42,1.93-.42,3.12C318.71,109.2,318.3,110.23,317.61,111.3Z"/><path class="cls-3" d="M276.33,112.63c.59,2.64-1.59,3.18,0,4.45,1.32.22,1.11-1.19,2.1-1.33A6.33,6.33,0,0,0,276.33,112.63Z"/><path class="cls-3" d="M303.85,124.66c.41,1.79,2.22,2.07,2.08,4.44,2.7-.67,2.29,2,5,1.33-.12-1,1.2-.49,1.26-1.33-.32-.1-.82,0-.82-.46,1.36-.61.68-3.39,2.09-4-1-1.45.35-3-.43-4a1.89,1.89,0,0,0,1.24-2.21c-1-.85-1.82-1.92-3.75-1.8C310.13,121.28,304.59,120.39,303.85,124.66Z"/><path class="cls-3" d="M295.92,121.53c-.63-1-1.95-1.75-1.65-3.1-1.14.3-.85-.9-1.68-.9.05,2-1-.05-2.09.44,0,5.2,5.86,4.14,5,10.24,2.05.24,2.63,3.18,4.57,2.22,1-1.7-.86-3.65-.81-5.77A14.33,14.33,0,0,1,295.92,121.53Z"/><path class="cls-3" d="M319.28,125.1c-.09-2-2.63-1.35-3.35-2.67-2.14,1.83-3.62,6.79-.41,8.45-.09-1.28.1-2.26.83-2.67.91.85,1,2.27,2.5,1.34-.21-1.86-1.61-2.46-1.66-4.45A1.49,1.49,0,0,0,319.28,125.1Z"/><path class="cls-3" d="M328.43,123.31c-1.36-.91-4.68-.73-4.57,1.35C325.28,125.61,328.33,125.16,328.43,123.31Z"/><path class="cls-3" d="M333,125.1h-2.92c-.37.65-.62,1.42-1.68,1.34-1.29.34-.78-1.24-2.06-.9.12,1.17-1.64.36-1.26,1.77.05,1,1-.56,2.06,0,1.86,1.6,4.29,2.56,5.85,4.46v2.67c2.23-1.44,2.9.91,4.58,1.33,1.46-.06,1-2.2,2.91-1.78,1,.61,2.08,3.39,3.75,1.78-.87-.39-1.27-1.32-1.25-2.66-1.09-1.07-2.62-1.64-3.33-3.13v-1.34C336.48,128.52,335.6,125.9,333,125.1Z"/><path class="cls-3" d="M310.92,135.33c.23-1.58-1.46-1.1-1.24-2.68-3.4.09-5.82-.92-8.34-1.78-.36.79-1.17,1.14-.82,2.67C304.5,133.6,306.38,135.89,310.92,135.33Z"/><path class="cls-3" d="M341.76,152.69c.17-2.1-.72-3.07-.41-5.35-.82-.3-1-1.34-1.66-1.77-.15-3.41-3-3.95-2.5-8-.78.1-.91-.5-1.66-.45-1.07,1.83.44,6.43-1.27,7.57-1.64.58-.84-1.47-2.5-.9-.07-1.25-2-.54-1.66-2.22-.22-1.41,2.05-.17,1.66-1.77-1.45-1.73-5.72-.45-7.91-1.35-.73.27,0,2.11-.84,2.22a15.24,15.24,0,0,0-4.17,1.34c-.52,1.35-.14,3.71-1.66,4-1-1.06-2.06.06-3.35,0-.81.3.1,2.48-.82,2.66-.86-.25-.82-1.33-1.67-.44-1,1.11-.55,3.86-2.09,4.45-.93.64-2.79.3-3.34,1.33.44,2,1.46,4.45.42,6.67.81.32,1.1,1.2,1.25,2.23.23,2-.75,2.77-.43,4.89,1.25-.11,1.3,1,2.52.9,1.74-.81,2.76-2.38,5.84-1.79,1.47-2,4.39-2.43,7.92-2.22a8.08,8.08,0,0,1,2.49,4c1.63-.83,1.13,1,2.92,0,0,1.17.15,2.53-.42,3.11,2.67,1.66,4.25,1.75,8.35,1.79,1.05-.8,1.82-1.92,3.33-2.25-.2-2.28,2-2,1.65-4.43,1.46-.1,1.09-2.12,2.51-2.22-.48-1.58.72-2.52.83-4,.23-2.72-.81-5.5-1.25-8C342.82,152.1,342.14,154,341.76,152.69Z"/><path class="cls-3" d="M244.66,138.45A13.37,13.37,0,0,0,243,142.9c-1.81.45-2.73,1.8-3.74,3.12-.33,1.54.61,1.72.41,3.11a9.67,9.67,0,0,1-1.27,2.67c.91,2-.29,3.78,1.27,5.34,1.35.08,1.76-.79,3.33-.45.91-2,.55-2.88,1.67-4.89v-2.23c.1-.5.46-.69.83-.9-.76-1.95.77-3.8.85-7.12C244.78,141.58,246.38,138.25,244.66,138.45Z"/><path class="cls-3" d="M364.7,168.72c.08-1.27.05-2.44-1.24-2.22V170c-.34,1.31-2,1.17-1.67,3.14,2.8-.44,1,1.32.83,2.66,2.63-.13,2.73-3,3.76-4.9.62-.67,1.74-.8,2.07-1.79C367.44,167.78,366.67,168.89,364.7,168.72Z"/><path class="cls-3" d="M360.11,174.06c-.36.94-1.25,1.32-1.24,2.66a2.3,2.3,0,0,0-1.68.44c-.7.89-1,2.23-2.07,2.66-1.72.7-2.23,2.67-2.93,4.46,1.36-.72,2.26-.22,3.74,0,.4-1.06,1.69-1.18,1.26-3.12h1.68c.12-2.54,3.28-1.82,3.32-4.45C362,175.25,361,174.81,360.11,174.06Z"/><path class="cls-3" d="M331.77,175.38c-.47.68,1.39,2.69,1.68,4,2-.21,3.33-1.18,2.91-4C334.54,175.74,332.5,174.84,331.77,175.38Z"/><path class="cls-3" d="M143,189.18h1.67C144.91,187.43,142.88,187.73,143,189.18Z"/></g><g class="cls-4"><path class="cls-5" d="M318.71,216.69c0,7.8-71.35,14.13-159.36,14.13S0,224.49,0,216.69s71.35-14.13,159.35-14.13,159.36,6.33,159.36,14.13"/><path class="cls-6" d="M311.93,216.69c0,7.52-68.31,13.62-152.58,13.62S6.78,224.21,6.78,216.69s68.31-13.62,152.57-13.62,152.58,6.1,152.58,13.62"/><path class="cls-7" d="M305.15,216.69c0,7.24-65.28,13.1-145.8,13.1s-145.79-5.87-145.79-13.1,65.27-13.11,145.79-13.11,145.8,5.87,145.8,13.11"/><path class="cls-8" d="M298.37,216.69c0,7-62.24,12.59-139,12.59s-139-5.64-139-12.59,62.24-12.6,139-12.6,139,5.64,139,12.6"/><path class="cls-9" d="M291.59,216.69c0,6.67-59.21,12.08-132.24,12.08S27.12,223.36,27.12,216.69s59.2-12.08,132.23-12.08S291.59,210,291.59,216.69"/><path class="cls-10" d="M284.81,216.69c0,6.39-56.17,11.56-125.46,11.56S33.9,223.07,33.9,216.69s56.17-11.57,125.45-11.57,125.46,5.18,125.46,11.57"/><path class="cls-11" d="M278,216.69c0,6.1-53.13,11.05-118.68,11.05S40.68,222.79,40.68,216.69s53.13-11.06,118.67-11.06S278,210.58,278,216.69"/><path class="cls-12" d="M271.25,216.69c0,5.82-50.1,10.54-111.9,10.54S47.46,222.51,47.46,216.69s50.1-10.54,111.89-10.54,111.9,4.72,111.9,10.54"/><path class="cls-13" d="M264.47,216.69c0,5.54-47.06,10-105.12,10s-105.12-4.49-105.12-10,47.06-10,105.12-10,105.12,4.49,105.12,10"/><path class="cls-14" d="M257.69,216.69c0,5.25-44,9.51-98.34,9.51S61,221.94,61,216.69s44-9.52,98.34-9.52,98.34,4.26,98.34,9.52"/><path class="cls-15" d="M250.91,216.69c0,5-41,9-91.56,9s-91.56-4-91.56-9,41-9,91.56-9,91.56,4,91.56,9"/><path class="cls-16" d="M244.13,216.69c0,4.69-38,8.49-84.78,8.49s-84.78-3.8-84.78-8.49,38-8.49,84.78-8.49,84.78,3.8,84.78,8.49"/><path class="cls-17" d="M237.35,216.69c0,4.4-34.92,8-78,8s-78-3.57-78-8,34.92-8,78-8,78,3.57,78,8"/><path class="cls-18" d="M230.57,216.69c0,4.12-31.89,7.46-71.22,7.46s-71.22-3.34-71.22-7.46,31.89-7.47,71.22-7.47,71.22,3.34,71.22,7.47"/><path class="cls-19" d="M223.79,216.69c0,3.84-28.85,6.95-64.44,6.95s-64.44-3.11-64.44-6.95,28.85-7,64.44-7,64.44,3.11,64.44,7"/><path class="cls-20" d="M217,216.69c0,3.55-25.82,6.44-57.66,6.44s-57.66-2.88-57.66-6.44,25.81-6.44,57.66-6.44S217,213.13,217,216.69"/><path class="cls-21" d="M210.23,216.69c0,3.27-22.78,5.92-50.88,5.92s-50.88-2.65-50.88-5.92,22.78-5.93,50.88-5.93,50.88,2.65,50.88,5.93"/><path class="cls-22" d="M203.45,216.69c0,3-19.74,5.41-44.1,5.41s-44.1-2.42-44.1-5.41,19.74-5.42,44.1-5.42,44.1,2.42,44.1,5.42"/><path class="cls-23" d="M196.67,216.69c0,2.7-16.71,4.9-37.32,4.9S122,219.39,122,216.69s16.71-4.9,37.32-4.9,37.32,2.19,37.32,4.9"/><path class="cls-24" d="M189.89,216.69c0,2.42-13.67,4.38-30.54,4.38s-30.54-2-30.54-4.38,13.67-4.39,30.54-4.39,30.54,2,30.54,4.39"/><path class="cls-25" d="M183.12,216.69c0,2.14-10.64,3.87-23.76,3.87s-23.76-1.73-23.76-3.87,10.64-3.88,23.76-3.88,23.76,1.73,23.76,3.88"/><path d="M176.34,216.69c0,1.85-7.6,3.36-17,3.36s-17-1.5-17-3.36,7.6-3.36,17-3.36,17,1.5,17,3.36"/></g><g class="cls-4"><path class="cls-5" d="M469.56,207.43c0,5.38-36.45,9.74-81.42,9.74s-81.42-4.36-81.42-9.74,36.45-9.74,81.42-9.74,81.42,4.36,81.42,9.74"/><path class="cls-6" d="M466.09,207.43c0,5.18-34.9,9.38-78,9.38s-78-4.2-78-9.38,34.9-9.39,78-9.39,78,4.2,78,9.39"/><path class="cls-7" d="M462.63,207.43c0,5-33.35,9-74.49,9s-74.49-4-74.49-9,33.35-9,74.49-9,74.49,4,74.49,9"/><path class="cls-8" d="M459.17,207.43c0,4.79-31.8,8.68-71,8.68s-71-3.89-71-8.68,31.8-8.68,71-8.68,71,3.89,71,8.68"/><path class="cls-9" d="M455.7,207.43c0,4.6-30.25,8.32-67.56,8.32s-67.56-3.73-67.56-8.32,30.25-8.33,67.56-8.33,67.56,3.73,67.56,8.33"/><path class="cls-10" d="M452.24,207.43c0,4.4-28.7,8-64.1,8s-64.1-3.57-64.1-8,28.7-8,64.1-8,64.1,3.57,64.1,8"/><path class="cls-11" d="M448.77,207.43c0,4.21-27.15,7.62-60.63,7.62s-60.63-3.41-60.63-7.62,27.15-7.62,60.63-7.62,60.63,3.41,60.63,7.62"/><path class="cls-12" d="M445.31,207.43c0,4-25.6,7.26-57.17,7.26S331,211.44,331,207.43s25.6-7.27,57.17-7.27,57.17,3.25,57.17,7.27"/><path class="cls-13" d="M441.85,207.43c0,3.82-24,6.91-53.71,6.91s-53.7-3.09-53.7-6.91,24-6.91,53.7-6.91,53.71,3.09,53.71,6.91"/><path class="cls-14" d="M438.38,207.43c0,3.62-22.49,6.56-50.24,6.56s-50.24-2.94-50.24-6.56,22.49-6.56,50.24-6.56,50.24,2.94,50.24,6.56"/><path class="cls-15" d="M434.92,207.43c0,3.43-20.94,6.2-46.78,6.2s-46.78-2.78-46.78-6.2,20.94-6.21,46.78-6.21,46.78,2.78,46.78,6.21"/><path class="cls-16" d="M431.45,207.43c0,3.23-19.39,5.85-43.31,5.85s-43.31-2.62-43.31-5.85,19.39-5.85,43.31-5.85,43.31,2.62,43.31,5.85"/><path class="cls-17" d="M428,207.43c0,3-17.84,5.5-39.85,5.5s-39.85-2.46-39.85-5.5,17.84-5.5,39.85-5.5,39.85,2.46,39.85,5.5"/><path class="cls-18" d="M424.53,207.43c0,2.84-16.29,5.14-36.39,5.14s-36.39-2.3-36.39-5.14,16.29-5.15,36.39-5.15,36.39,2.3,36.39,5.15"/><path class="cls-19" d="M421.06,207.43c0,2.64-14.74,4.79-32.92,4.79s-32.92-2.14-32.92-4.79,14.74-4.79,32.92-4.79,32.92,2.14,32.92,4.79"/><path class="cls-20" d="M417.6,207.43c0,2.45-13.19,4.44-29.46,4.44s-29.46-2-29.46-4.44S371.87,203,388.14,203s29.46,2,29.46,4.44"/><path class="cls-21" d="M414.14,207.43c0,2.25-11.64,4.08-26,4.08s-26-1.83-26-4.08,11.64-4.09,26-4.09,26,1.83,26,4.09"/><path class="cls-22" d="M410.67,207.43c0,2.06-10.09,3.73-22.53,3.73s-22.53-1.67-22.53-3.73,10.09-3.73,22.53-3.73,22.53,1.67,22.53,3.73"/><path class="cls-23" d="M407.21,207.43c0,1.86-8.54,3.38-19.07,3.38s-19.07-1.51-19.07-3.38,8.54-3.38,19.07-3.38,19.07,1.51,19.07,3.38"/><path class="cls-24" d="M403.74,207.43c0,1.67-7,3-15.6,3s-15.6-1.35-15.6-3,7-3,15.6-3,15.6,1.35,15.6,3"/><path class="cls-25" d="M400.28,207.43c0,1.47-5.44,2.67-12.14,2.67S376,208.91,376,207.43s5.44-2.67,12.14-2.67,12.14,1.19,12.14,2.67"/><path d="M396.82,207.43c0,1.28-3.88,2.31-8.68,2.31s-8.68-1-8.68-2.31,3.88-2.32,8.68-2.32,8.68,1,8.68,2.32"/></g><path class="cls-26" d="M414.86,75.08c4.94.48.89,25.22,3,33.74a6.38,6.38,0,0,0,6,4.93s-29.14,8.36-52.71,1.93-13.71-25.07-13.71-25.07Z"/><polygon class="cls-27" points="388.75 93.83 383.61 93.83 346.75 209.74 351.89 209.74 388.75 93.83"/><polygon class="cls-27" points="376.1 93.83 381.25 93.83 418.1 209.74 412.96 209.74 376.1 93.83"/><rect class="cls-27" x="349.98" y="83.12" width="65.55" height="55.7"/><rect class="cls-28" x="352.87" y="85.04" width="59.76" height="50.79"/><rect class="cls-29" x="349.44" y="137.25" width="66.84" height="1.62"/><rect class="cls-29" x="360.72" y="94.15" width="0.44" height="29.89"/><rect class="cls-29" x="359.12" y="122" width="47.57" height="0.43"/><rect class="cls-30" x="371.87" y="105.83" width="2.89" height="16.18"/><rect class="cls-31" x="378.29" y="101.65" width="2.89" height="20.36"/><rect class="cls-32" x="385.12" y="101.65" width="2.9" height="20.36"/><rect class="cls-33" x="391.14" y="100.58" width="2.9" height="21.42"/><rect class="cls-34" x="397.58" y="97.05" width="2.89" height="24.96"/><rect class="cls-35" x="365.45" y="108.94" width="2.89" height="13.07"/><rect class="cls-29" x="363.51" y="122.64" width="0.42" height="1.13"/><rect class="cls-29" x="366.35" y="122.64" width="0.43" height="1.13"/><rect class="cls-29" x="369.19" y="122.64" width="0.43" height="1.13"/><rect class="cls-29" x="372.02" y="122.64" width="0.43" height="1.13"/><rect class="cls-29" x="374.87" y="122.64" width="0.43" height="1.13"/><rect class="cls-29" x="377.7" y="122.64" width="0.43" height="1.13"/><rect class="cls-29" x="380.53" y="122.64" width="0.43" height="1.13"/><rect class="cls-29" x="383.38" y="122.64" width="0.43" height="1.13"/><rect class="cls-29" x="386.22" y="122.64" width="0.42" height="1.13"/><rect class="cls-29" x="389.06" y="122.64" width="0.42" height="1.13"/><rect class="cls-29" x="391.88" y="122.64" width="0.44" height="1.13"/><rect class="cls-29" x="394.74" y="122.64" width="0.42" height="1.13"/><rect class="cls-29" x="397.57" y="122.64" width="0.43" height="1.13"/><rect class="cls-29" x="400.4" y="122.64" width="0.43" height="1.13"/><rect class="cls-29" x="403.24" y="122.64" width="0.44" height="1.13"/><rect class="cls-29" x="359.32" y="119.22" width="1.13" height="0.43"/><rect class="cls-29" x="359.32" y="116.38" width="1.13" height="0.43"/><rect class="cls-29" x="359.32" y="113.54" width="1.13" height="0.43"/><rect class="cls-29" x="359.32" y="110.7" width="1.13" height="0.43"/><rect class="cls-29" x="359.32" y="107.86" width="1.13" height="0.43"/><rect class="cls-29" x="359.32" y="105.03" width="1.13" height="0.43"/><rect class="cls-29" x="359.32" y="102.19" width="1.13" height="0.43"/><rect class="cls-29" x="359.32" y="99.35" width="1.13" height="0.42"/><rect class="cls-29" x="359.32" y="96.51" width="1.13" height="0.43"/><path class="cls-36" d="M412.63,85a7.65,7.65,0,0,0,2.48-10.13l-61.87,3.54s-4.33,3.05-.36,6.59Z"/><rect class="cls-29" x="104.01" y="117.69" width="37.03" height="50.2"/><path class="cls-37" d="M139.81,123.31a17.83,17.83,0,0,0-13.27-6.09l-7.43,0a17.84,17.84,0,0,0-14,6.54,17.76,17.76,0,0,1,4.1,11.5L109,165l26.54.2-.22-30a17.84,17.84,0,0,1,4.46-11.91"/><rect class="cls-29" x="179.16" y="117.69" width="37.04" height="50.2"/><path class="cls-38" d="M215,123.31a17.84,17.84,0,0,0-13.28-6.09l-7.43,0a17.82,17.82,0,0,0-14,6.54,17.8,17.8,0,0,1,4.09,11.5L184.19,165l26.55.2-.22-30A17.8,17.8,0,0,1,215,123.31"/><path class="cls-39" d="M202.11,118.4a4.94,4.94,0,0,1-4.1,1.82,5.89,5.89,0,0,1-4.39-1.82V103.82h8.49Z"/><path class="cls-40" d="M185.9,96.69a5.75,5.75,0,0,1-1.06,1.75l0,4.43c0,6.29,4.79,11.35,10.61,11.3l4.38,0c5.82,0,10.51-5.18,10.47-11.47l-.08-11.45c-6.06-4.28-21.69-1.44-24.34,5.47"/><path class="cls-39" d="M127.42,118.28a5.09,5.09,0,0,1-4.22,1.82,6.09,6.09,0,0,1-4.51-1.82V103.7h8.72Z"/><path class="cls-40" d="M120.86,89.48c-1.67,0-11.14-.28-11.21,2.3,0,.11,0,.2,0,.32l.07,10.35c0,6.52,5,11.77,11,11.73l4.54,0c6,0,10.87-5.37,10.83-11.89l0-8c-4.13-4.34-9.42-4.87-15.13-4.8"/><line class="cls-41" x1="136.14" y1="169.34" x2="138.31" y2="202.19"/><line class="cls-41" x1="108.9" y1="169.34" x2="106.73" y2="202.19"/><rect class="cls-29" x="104.01" y="167.52" width="37.03" height="7.8"/><path class="cls-42" d="M109,155.81l.06,5.93c0,5,5,9,11,8.92l4.56,0c6,0,10.89-4.09,10.85-9l0-5.77Z"/><rect class="cls-42" x="109.08" y="164.58" width="11.43" height="39.02"/><rect class="cls-42" x="123.78" y="164.71" width="11.68" height="38.9"/><path class="cls-29" d="M110.37,205.22c0,1.7,0,3.1,1.37,3.1H118c1.41,0,1.43-1.4,1.43-3.1a2.88,2.88,0,0,0-2.55-3.11h-4a2.87,2.87,0,0,0-2.55,3.11"/><path class="cls-29" d="M125,205.22c0,1.7,0,3.1,1.37,3.1h6.24c1.41,0,1.43-1.4,1.43-3.1a2.87,2.87,0,0,0-2.53-3.11h-4a2.87,2.87,0,0,0-2.55,3.11"/><path class="cls-42" d="M116.21,116.85s4.38,25.19,2.6,48.43H108l.35-33.6L104.77,124s2.51-5.72,11.44-7.15"/><path class="cls-42" d="M129.52,116.85s-4.29,25-2.5,48.25l9.83.27.54-33.68,3.56-7.69s-2.5-5.72-11.43-7.15"/><path class="cls-43" d="M111.75,118s3.13,13.94,2.85,15.55l1.79-.09-2,1.16,4.7,13.26s-.41-20.62-2.74-31.69c0,0-3.13.39-4.65,1.81"/><path class="cls-43" d="M134,118s-3.13,13.94-2.86,15.55l-1.79-.09,2,1.16-4.7,13.26s.41-20.62,2.73-31.69c0,0,3.13.39,4.65,1.81"/><rect class="cls-29" x="119.07" y="155.83" width="7.55" height="2.85"/><rect class="cls-44" x="120.68" y="155.49" width="4.43" height="3.43"/><path class="cls-43" d="M109.44,149.56l7.32.27s1,10.63-3.57,11.17-3.75-11.44-3.75-11.44"/><path class="cls-43" d="M136.51,149.56l-7.33.27s-1,10.63,3.58,11.17,3.75-11.44,3.75-11.44"/><polygon class="cls-45" points="119.07 158.68 119 165.64 109.03 165.28 119.48 166.26 119.07 158.68"/><polygon class="cls-45" points="126.55 158.68 126.63 165.64 136.59 165.28 126.12 166.26 126.55 158.68"/><path class="cls-46" d="M122.27,119l-1.14,4.83s-4-4.47-4.17-5.31-.17-1.43-.17-1.43l.58-1.91Z"/><path class="cls-46" d="M123.53,119l1.13,4.83s4-4.47,4.16-5.31.19-1.43.19-1.43l-.6-1.91Z"/><path class="cls-47" d="M122.27,119v2.47l-.56-.07a21.62,21.62,0,0,1,.57-2.4"/><path class="cls-47" d="M123.53,119l0,2.51.56,0a20,20,0,0,0-.58-2.47"/><polygon class="cls-48" points="122.01 119.8 123.73 119.77 124.33 122.15 123.73 123.67 122.13 123.67 121.52 122 122.01 119.8"/><polygon class="cls-48" points="122.81 148.43 119.48 144.14 122.12 123.67 123.73 123.67 126.15 144.19 122.81 148.43"/><line class="cls-41" x1="105.46" y1="175.33" x2="103.28" y2="208.19"/><line class="cls-41" x1="139.77" y1="175.33" x2="141.94" y2="208.19"/><path class="cls-43" d="M125.29,169.79c-.35.21,2.45-3.13,5-2.73s4.49,2,4.36,17.57c0,0-1.5-9.25-3.68-10.35s-2.18-4.36-3.13-3-.69-.82-.69-.82a1.25,1.25,0,0,0-1.9-.68"/><path class="cls-43" d="M118.73,169.79c.36.21-2.45-3.13-5-2.73s-4.49,2-4.35,17.57c0,0,1.5-9.25,3.68-10.35s2.18-4.36,3.13-3,.69-.82.69-.82a1.24,1.24,0,0,1,1.9-.68"/><line class="cls-41" x1="211.3" y1="169.34" x2="213.48" y2="202.19"/><line class="cls-41" x1="184.07" y1="169.34" x2="181.89" y2="202.19"/><rect class="cls-29" x="179.16" y="167.52" width="37.04" height="7.8"/><path class="cls-49" d="M184.16,155.81l.06,5.93c0,5,5,9,11,8.92l4.56,0c6,0,10.9-4.09,10.85-9l0-5.77Z"/><rect class="cls-49" x="184.25" y="164.58" width="11.43" height="39.02"/><rect class="cls-49" x="198.94" y="164.71" width="11.68" height="38.9"/><path class="cls-29" d="M185.54,205.22c0,1.7,0,3.1,1.37,3.1h6.25c1.41,0,1.44-1.4,1.44-3.1a2.88,2.88,0,0,0-2.55-3.11h-4a2.88,2.88,0,0,0-2.55,3.11"/><path class="cls-29" d="M200.2,205.22c0,1.7,0,3.1,1.36,3.1h6.25c1.41,0,1.43-1.4,1.43-3.1a2.87,2.87,0,0,0-2.54-3.11h-4a2.87,2.87,0,0,0-2.55,3.11"/><path class="cls-49" d="M191.37,116.85S195.76,142,194,165.28H183.16l.34-33.6L179.93,124s2.51-5.72,11.44-7.15"/><path class="cls-49" d="M204.68,116.85s-4.29,25-2.5,48.25l9.83.27.53-33.68,3.57-7.69s-2.5-5.72-11.44-7.15"/><path class="cls-50" d="M186.91,118S190,132,189.76,133.57l1.79-.09-2,1.16,4.71,13.26s-.42-20.62-2.75-31.69c0,0-3.12.39-4.64,1.81"/><path class="cls-50" d="M209.18,118s-3.12,13.94-2.85,15.55l-1.79-.09,2,1.16-4.7,13.26s.41-20.62,2.74-31.69c0,0,3.13.39,4.64,1.81"/><rect class="cls-29" x="194.23" y="155.83" width="7.55" height="2.85"/><rect class="cls-44" x="195.84" y="155.49" width="4.43" height="3.43"/><path class="cls-50" d="M184.6,149.56l7.33.27s1,10.63-3.57,11.17-3.76-11.44-3.76-11.44"/><path class="cls-50" d="M211.67,149.56l-7.33.27s-1,10.63,3.58,11.17,3.75-11.44,3.75-11.44"/><polygon class="cls-51" points="194.23 158.68 194.17 165.64 184.2 165.28 194.65 166.26 194.23 158.68"/><polygon class="cls-51" points="201.72 158.68 201.78 165.64 211.75 165.28 201.29 166.26 201.72 158.68"/><path class="cls-52" d="M197.44,119l-1.14,4.83s-4-4.47-4.16-5.31-.17-1.43-.17-1.43l.59-1.91Z"/><path class="cls-52" d="M198.7,119l1.12,4.83s4-4.47,4.16-5.31.19-1.43.19-1.43l-.6-1.91Z"/><path class="cls-53" d="M197.44,119l0,2.47-.56-.07a20.19,20.19,0,0,1,.58-2.4"/><path class="cls-53" d="M198.7,119v2.51l.56,0a20.54,20.54,0,0,0-.57-2.47"/><polygon class="cls-48" points="197.18 119.8 198.89 119.77 199.5 122.15 198.89 123.67 197.28 123.67 196.69 122 197.18 119.8"/><polygon class="cls-48" points="197.97 148.43 194.64 144.14 197.29 123.67 198.89 123.67 201.31 144.19 197.97 148.43"/><line class="cls-41" x1="180.62" y1="175.33" x2="178.44" y2="208.19"/><line class="cls-41" x1="214.93" y1="175.33" x2="217.11" y2="208.19"/><path class="cls-50" d="M200.45,169.79c-.36.21,2.45-3.13,5-2.73s4.5,2,4.36,17.57c0,0-1.49-9.25-3.67-10.35s-2.19-4.36-3.13-3-.68-.82-.68-.82a1.25,1.25,0,0,0-1.9-.68"/><path class="cls-50" d="M193.9,169.79c.35.21-2.45-3.13-5-2.73s-4.48,2-4.35,17.57c0,0,1.5-9.25,3.68-10.35s2.18-4.36,3.13-3,.69-.82.69-.82a1.25,1.25,0,0,1,1.91-.68"/><path class="cls-54" d="M55.89,198.29s-1.19,7.38,3,9.32,7.41,1.61,6.64,3.89c0,0,.12,2.89-8.77,1.78,0,0-6.15-.48-7.64-1.69-1.12-1,.37-9.21,1.36-11.59,0,0,3.79-2.19,5.44-1.71"/><path class="cls-55" d="M29.71,121s5,11,4.36,18.6L32.71,141l-1.86-2s1.26-6.83-2.26-17.6Z"/><path class="cls-55" d="M28.36,117.8s1.63,3.42,1.35,3.6a6.68,6.68,0,0,1-1.63.27l-1-3.15s.82-1.63,1.27-.72"/><path class="cls-39" d="M26.83,119.9s-1.08,2.1-5,1.29a7.63,7.63,0,0,1-4.72-2.83l2.57-16.28,9.74,1.53Z"/><path class="cls-40" d="M33.71,81c-3.67-.14-7.34-.13-10.82,1.33-4.39,1.84-7.57,4.76-11.31,7.43l-.33,7.62c-.37,8.38,5.29,15.43,12.65,15.74l5.55.22c7.36.32,13.61-6.23,14-14.61L44,86.55c.12-2.83-4.48-4.69-10.24-5.59"/><path class="cls-56" d="M19.62,115.19s-9.57-3.1-7.94,18c.84,10.9-.81,28.93-.81,28.93l19.19.13s10.1-47.36-10.44-47.08"/><path class="cls-55" d="M28.82,175.52l1.68-14.15-19.83-.72s-1.85,11,4.38,13.66,13.76,1.21,13.76,1.21"/><polygon class="cls-54" points="10.77 158.22 10.05 161.82 30.79 162.9 30.87 159.84 10.77 158.22"/><polygon class="cls-55" points="13.02 162.23 11.94 162.13 12.28 158.14 13.35 158.23 13.02 162.23"/><rect class="cls-55" x="14.66" y="159.88" width="4.01" height="1.08" transform="matrix(0.08, -1, 1, 0.08, -144.58, 163.88)"/><rect class="cls-55" x="25.77" y="160.72" width="4.02" height="1.08" transform="translate(-135.26 175.26) rotate(-85.14)"/><path class="cls-57" d="M15.47,115.46l1.82-2.29c4.26-.31,11.07,3.19,11.07,3.19l-.27,3.79s-2.61-4.87-12.62-4.69"/><path class="cls-58" d="M9.18,94.6c-1-13.34,9.06-14.75,9.06-14.75a58.27,58.27,0,0,1,12.46-.64c12,.54,17.94,8.09,13.32,12.92-2.8,2.62-7.08,2-11.26,3.15-4.46,1.21-6,7.33-7.55,6.95-.84-.21-.83-2.11-.83-2.11s-.44-2-2-1.42-2.92,4.06-.09,6.61c0,0,.34,6.6-2.14,7.06s-9.93-3.09-11-17.77"/><path class="cls-55" d="M30.21,163.59s22.42,6.3,23.12,8.51,4.35,33.64,4.35,33.64l-9.54,1.38s-4.71-24.91-4.51-27.82c-2.9-1.66-18-3.87-18.61-3.66s-7.06-10.8,5.19-12"/><line class="cls-59" x1="31.8" y1="175.93" x2="34.19" y2="208.57"/><path class="cls-29" d="M37.2,182.8H4.69v-8.58s20.71,0,27.35,0c8,0,5.16,8.58,5.16,8.58"/><line class="cls-59" x1="35.79" y1="182.52" x2="38.18" y2="215.15"/><path class="cls-29" d="M64.36,147.63a1.48,1.48,0,0,1-1.49,1.48H41.14a1.48,1.48,0,1,1,0-3H62.87a1.49,1.49,0,0,1,1.49,1.49"/><path class="cls-29" d="M62.4,149a1.48,1.48,0,0,1-1-1.87l6.63-20.69a1.49,1.49,0,1,1,2.83.91L64.27,148a1.49,1.49,0,0,1-1.87,1"/><path class="cls-57" d="M18.64,117.76s-3,4.68,1.47,7.08,22-4.38,24.2-7.52c2.39-3.46,5.84-13.23,6.16-16.43,0,0-5.59-3.15-5.85-2.87-.75.87-7.72,13-7.72,13s-16,4.3-18.27,6.72"/><polygon class="cls-57" points="44.54 97.46 43.43 99.5 50.08 103.47 50.61 100.67 44.54 97.46"/><path class="cls-60" d="M158.8,137.52a3.72,3.72,0,0,1-1.57-3.53h-1.5a3.73,3.73,0,0,1-1.56,3.53c-1,.7-1,2.11-.5,2.43,0,0-.65,1.46.27,2s-.27,4.17-.32,5.52a2.17,2.17,0,0,0,2.11,2.06l.68,0h.14l.68,0c.81-.06,2.35-.71,2.3-2.06s-1.43-5-.51-5.52.27-2,.27-2c.54-.32.53-1.73-.49-2.43"/><path class="cls-61" d="M156.33,149.31c-.63,0-2-.57-1.94-1.87a14.88,14.88,0,0,1,.28-1.76c.34-1.74.7-3.53-.06-3.93s-.19-1.69-.19-1.71l.06-.15-.13-.08a.77.77,0,0,1-.27-.64,1.8,1.8,0,0,1,.76-1.49,3.91,3.91,0,0,0,1.67-3.49H156a3.9,3.9,0,0,1-1.66,3.49,1.8,1.8,0,0,0-.77,1.49.79.79,0,0,0,.26.64l.15.08-.07.15s-.57,1.3.19,1.71.39,2.19.05,3.93a15.08,15.08,0,0,0-.29,1.76c0,1.3,1.31,1.83,1.94,1.87l.68,0h0l.28,0Z"/><path class="cls-61" d="M156.65,149.31c.62,0,2.06-.57,2-1.87a9,9,0,0,0,0-1.76c-.34-1.74-1.07-3.53-.31-3.93s.57-1.69.57-1.71l-.07-.15.14-.08c.15-.09-.13-.34-.12-.64a1.53,1.53,0,0,0-.47-1.49,3.62,3.62,0,0,1-1.47-3.49h0a3.9,3.9,0,0,0,1.66,3.49,1.8,1.8,0,0,1,.77,1.49.79.79,0,0,1-.27.64l-.14.08.06.15s.57,1.3-.18,1.71-.4,2.19-.06,3.93a11.68,11.68,0,0,1,.28,1.76c0,1.3-1.31,1.83-1.94,1.87l-.68,0h0l-.27,0Z"/><path class="cls-32" d="M157.36,133.69c0,.2-.4.34-.89.34s-.88-.15-.88-.34.39-.34.88-.34.89.15.89.34"/><path class="cls-32" d="M157.36,134.55c0,.2-.4.34-.89.34s-.88-.15-.88-.34.39-.34.88-.34.89.16.89.34"/><rect class="cls-32" x="155.61" y="133.69" width="1.74" height="0.83"/><path class="cls-60" d="M79.62,137.52A3.71,3.71,0,0,1,78.06,134H76.57A3.73,3.73,0,0,1,75,137.52c-1,.7-1,2.11-.49,2.43,0,0-.65,1.46.27,2s-.27,4.17-.33,5.52a2.18,2.18,0,0,0,2.11,2.06l.67,0h.14l.68,0c.81-.06,2.36-.71,2.3-2.06s-1.43-5-.52-5.52.27-2,.27-2c.55-.32.53-1.73-.49-2.43"/><path class="cls-61" d="M77.15,149.31c-.63,0-2-.57-1.94-1.87a13.86,13.86,0,0,1,.28-1.76c.34-1.74.71-3.53-.05-3.93s-.19-1.69-.19-1.71l.06-.15-.13-.08a.8.8,0,0,1-.27-.64,1.83,1.83,0,0,1,.77-1.49,3.9,3.9,0,0,0,1.67-3.49h-.53a3.9,3.9,0,0,1-1.67,3.49,1.79,1.79,0,0,0-.76,1.49.78.78,0,0,0,.26.64l.15.08-.07.15s-.57,1.3.19,1.71.4,2.19.06,3.93a17.21,17.21,0,0,0-.3,1.76c0,1.3,1.32,1.83,2,1.87l.68,0h0l.28,0Z"/><path class="cls-61" d="M77.47,149.31c.63,0,2.07-.57,2-1.87a8.68,8.68,0,0,0,0-1.76c-.34-1.74-1.06-3.53-.31-3.93s.58-1.69.57-1.71l-.07-.15.15-.08c.15-.09-.13-.34-.13-.64a1.51,1.51,0,0,0-.47-1.49,3.63,3.63,0,0,1-1.47-3.49h0a3.9,3.9,0,0,0,1.66,3.49,1.76,1.76,0,0,1,.76,1.49.77.77,0,0,1-.26.64l-.14.08.06.15s.57,1.3-.19,1.71-.4,2.19-.06,3.93a13.34,13.34,0,0,1,.29,1.76c0,1.3-1.31,1.83-1.94,1.87l-.67,0h0l-.28,0Z"/><path class="cls-32" d="M78.18,133.69c0,.2-.4.34-.89.34s-.87-.15-.87-.34.39-.34.87-.34.89.15.89.34"/><path class="cls-32" d="M78.18,134.55c0,.2-.4.34-.89.34s-.87-.15-.87-.34.39-.34.87-.34.89.16.89.34"/><rect class="cls-32" x="76.43" y="133.69" width="1.74" height="0.83"/><path class="cls-60" d="M171.81,137.52a3.72,3.72,0,0,1-1.57-3.53h-1.49a3.74,3.74,0,0,1-1.57,3.53c-1,.7-1,2.11-.49,2.43,0,0-.65,1.46.26,2s-.26,4.17-.32,5.52a2.18,2.18,0,0,0,2.11,2.06l.68,0h.13l.68,0c.82-.06,2.36-.71,2.3-2.06s-1.43-5-.51-5.52.27-2,.27-2c.54-.32.53-1.73-.49-2.43"/><path class="cls-61" d="M169.34,149.31c-.63,0-2-.57-1.94-1.87a13.83,13.83,0,0,1,.28-1.76c.34-1.74.7-3.53-.05-3.93s-.2-1.69-.19-1.71l.06-.15-.13-.08a.78.78,0,0,1-.26-.64,1.79,1.79,0,0,1,.76-1.49,3.91,3.91,0,0,0,1.67-3.49H169a3.9,3.9,0,0,1-1.66,3.49,1.81,1.81,0,0,0-.77,1.49.78.78,0,0,0,.27.64l.14.08-.07.15s-.57,1.3.19,1.71.39,2.19.06,3.93a15.47,15.47,0,0,0-.3,1.76c0,1.3,1.32,1.83,2,1.87l.67,0h0l.28,0Z"/><path class="cls-61" d="M169.66,149.31c.63,0,2.07-.57,2-1.87a8.78,8.78,0,0,0,0-1.76c-.34-1.74-1.06-3.53-.31-3.93s.58-1.69.57-1.71l-.06-.15.14-.08c.15-.09-.13-.34-.12-.64a1.52,1.52,0,0,0-.47-1.49,3.63,3.63,0,0,1-1.47-3.49h0a3.92,3.92,0,0,0,1.66,3.49,1.79,1.79,0,0,1,.78,1.49.81.81,0,0,1-.27.64l-.14.08.07.15s.56,1.3-.19,1.71-.4,2.19-.06,3.93a13.69,13.69,0,0,1,.29,1.76c0,1.3-1.32,1.83-1.95,1.87l-.67,0h0l-.28,0Z"/><path class="cls-32" d="M170.37,133.69c0,.2-.4.34-.89.34s-.87-.15-.87-.34.39-.34.87-.34.89.15.89.34"/><path class="cls-32" d="M170.37,134.55c0,.2-.4.34-.89.34s-.87-.15-.87-.34.39-.34.87-.34.89.16.89.34"/><rect class="cls-32" x="168.61" y="133.69" width="1.74" height="0.83"/><path class="cls-60" d="M238.81,138.08a3.7,3.7,0,0,1-1.57-3.53h-1.49a3.74,3.74,0,0,1-1.57,3.53c-1,.7-1,2.11-.49,2.43,0,0-.65,1.47.27,2s-.27,4.17-.33,5.53a2.16,2.16,0,0,0,2.11,2.06l.68,0h.13l.68,0c.81-.05,2.36-.7,2.3-2.06s-1.44-5-.52-5.53.27-2,.27-2c.55-.32.53-1.73-.49-2.43"/><path class="cls-61" d="M236.34,149.87c-.63,0-2-.57-1.95-1.87a16.4,16.4,0,0,1,.29-1.76c.34-1.74.7-3.54-.06-3.94s-.2-1.69-.19-1.7l.06-.16-.13-.08a.79.79,0,0,1-.27-.63,1.81,1.81,0,0,1,.76-1.49,3.92,3.92,0,0,0,1.67-3.49H236a3.9,3.9,0,0,1-1.67,3.49,1.77,1.77,0,0,0-.77,1.49.76.76,0,0,0,.27.63l.14.08-.07.16s-.57,1.3.19,1.7.4,2.2.05,3.94a15,15,0,0,0-.29,1.76c0,1.3,1.32,1.83,1.94,1.87l.68,0h0l.28,0Z"/><path class="cls-61" d="M236.66,149.87c.63,0,2.07-.57,2-1.87a8.68,8.68,0,0,0,0-1.76c-.35-1.74-1.06-3.54-.31-3.94s.58-1.69.57-1.7l-.06-.16.14-.08c.16-.09-.12-.34-.12-.63a1.5,1.5,0,0,0-.47-1.49,3.63,3.63,0,0,1-1.47-3.49h0a3.91,3.91,0,0,0,1.66,3.49,1.78,1.78,0,0,1,.78,1.49.8.8,0,0,1-.27.63l-.14.08.07.16s.57,1.3-.19,1.7-.4,2.2-.06,3.94a12.41,12.41,0,0,1,.29,1.76c0,1.3-1.31,1.83-1.94,1.87l-.67,0h0l-.28,0Z"/><path class="cls-32" d="M237.37,134.24c0,.19-.4.34-.88.34s-.88-.15-.88-.34.39-.34.88-.34.88.16.88.34"/><path class="cls-32" d="M237.37,135.11c0,.19-.4.34-.88.34s-.88-.15-.88-.34.39-.34.88-.34.88.16.88.34"/><rect class="cls-32" x="235.61" y="134.24" width="1.74" height="0.83"/><rect class="cls-62" x="34.59" y="156.59" width="8.04" height="63.41"/><rect class="cls-26" x="35.94" y="156.59" width="2.03" height="63.41"/><rect class="cls-26" x="40.16" y="156.59" width="1.73" height="63.41"/><rect class="cls-62" x="271.51" y="156.59" width="8.04" height="63.41"/><rect class="cls-26" x="272.58" y="156.59" width="2.03" height="63.41"/><rect class="cls-26" x="276.81" y="156.59" width="1.73" height="63.41"/><rect class="cls-63" x="31.86" y="149.06" width="250.03" height="9.58"/><rect class="cls-64" x="31.86" y="149.06" width="250.03" height="4.46"/><path class="cls-40" d="M363.13,105c0-1.44-3.82.35-5.88,1a16.11,16.11,0,0,0-2.53-1.18c-1.24-.49-3.27,1.5-4.38,3.57a4.24,4.24,0,0,1-2.26,1.58l.25.77h0l.36,1.06.74,2.32h0l.17.52a12.83,12.83,0,0,1,2.85-1c.63.28,1.81.38,4.63-.46,1.22-.44,2.11-.91,2-1.58-.06-.37,0-.74-.51-.77.86-.3,1-.68.81-1.32a.42.42,0,0,0-.37-.37c.54-.29.29-1.27-.33-1.69,2.88-1.1,4.38-2,4.39-2.47m-8.33,1.81.13,0-.82.31c.42-.56.7-.36.7-.36"/><path class="cls-65" d="M321.39,108.22c-2.89-3.3-4.91-2.66-9.64-2.7l-6.63,0a15.92,15.92,0,0,0-12.44,5.84,15.79,15.79,0,0,1,3.65,10.25l-.19,26.55,23.67.18-.19-26.73c0-4.07-.72-10.52,1.77-13.35"/><path class="cls-66" d="M296.11,139.93l0,5.29c0,4.43,4.43,8,9.82,8l4.06,0c5.38,0,9.72-3.65,9.68-8.07l0-5.15Z"/><path class="cls-39" d="M312.44,108.18a4.59,4.59,0,0,1-4,2,5.42,5.42,0,0,1-4.24-2V92h8.19Z"/><rect class="cls-66" x="296.19" y="147.75" width="10.19" height="58.06"/><rect class="cls-66" x="309.29" y="147.87" width="10.42" height="57.93"/><path class="cls-29" d="M297.34,207.25c0,1.52,0,2.77,1.23,2.77h5.58c1.25,0,1.27-1.24,1.27-2.77a2.55,2.55,0,0,0-2.27-2.76h-3.53a2.56,2.56,0,0,0-2.27,2.76"/><path class="cls-29" d="M310.41,207.25c0,1.52,0,2.77,1.23,2.77h5.57c1.26,0,1.28-1.24,1.28-2.77a2.55,2.55,0,0,0-2.27-2.76h-3.53a2.55,2.55,0,0,0-2.27,2.76"/><path class="cls-66" d="M302.54,105.19s3.91,22.47,2.32,43.19h-9.65l.33-30-3.19-6.85s2.23-5.1,10.19-6.38"/><path class="cls-66" d="M314.41,105.19s-3.83,22.31-2.23,43l8.78.24.47-30,.6-11.79s.35-.16-7.61-1.44"/><path class="cls-67" d="M298.56,106.23s2.79,12.43,2.56,13.87l1.59-.08-1.76,1,4.2,11.83s-.36-18.38-2.44-28.26c0,0-2.8.35-4.15,1.62"/><path class="cls-67" d="M318.43,106.23s-2.8,12.43-2.56,13.87l-1.59-.08,1.76,1-4.2,11.83s.37-18.38,2.44-28.26c0,0,2.79.35,4.15,1.62"/><rect class="cls-29" x="305.1" y="139.96" width="6.73" height="2.54"/><rect class="cls-68" x="306.52" y="139.65" width="3.96" height="3.06"/><path class="cls-67" d="M296.5,134.36l6.53.24s.87,9.48-3.19,10-3.34-10.2-3.34-10.2"/><path class="cls-67" d="M320.65,134.36l-6.54.24s-.87,9.48,3.19,10,3.34-10.2,3.34-10.2"/><polygon class="cls-69" points="305.1 142.5 305.02 148.7 296.14 148.38 305.46 149.26 305.1 142.5"/><polygon class="cls-69" points="311.76 142.5 311.83 148.7 320.72 148.38 311.39 149.26 311.76 142.5"/><path class="cls-70" d="M308,107.1l-1,4.31s-3.6-4-3.72-4.74-.16-1.28-.16-1.28l.53-1.69Z"/><path class="cls-70" d="M309.07,107.1l1,4.31s3.61-4,3.72-4.74.16-1.28.16-1.28l-.53-1.69Z"/><path class="cls-71" d="M308,107.1l0,2.2-.5-.06a18.2,18.2,0,0,1,.52-2.13"/><path class="cls-71" d="M309.07,107.1v2.23l.5,0a19.12,19.12,0,0,0-.52-2.21"/><polygon class="cls-69" points="307.71 107.82 309.25 107.79 309.79 109.92 309.25 111.27 307.82 111.27 307.29 109.78 307.71 107.82"/><polygon class="cls-69" points="308.43 133.35 305.45 129.52 307.82 111.27 309.25 111.27 311.4 129.57 308.43 133.35"/><path class="cls-67" d="M292.35,111.57s-11.14,17.85-6.2,20.24a27.39,27.39,0,0,0,8.6,2.71l3.51-4.95-5.58-3.35,3-7.17s0-9.72-3.36-7.49"/><path class="cls-67" d="M322.13,106.23a16.79,16.79,0,0,1,3.68,1.16,22.58,22.58,0,0,0,3.58,1.46s5.67,2.28,7.12,2.43a22.12,22.12,0,0,0,6.22-.82,27.71,27.71,0,0,0,5.66-2.18l3.05,7.19s-11.23,5.07-15.91,5-14.37-2.55-14.37-2.55-.58-11.43,1-11.72"/><path class="cls-40" d="M297.82,129.95a1.92,1.92,0,0,0,1.42.26c.69-.21,1.41-1.38,2.87-1s1.9.52,1.9.95-1.47.43-1.47.43,2.49.26,2.32,1.2l-.17.94a4.67,4.67,0,0,1-.86,1.81,1.36,1.36,0,0,1-.95,1.29s0,.95-1.29.87-3-.39-3.53-1.82c-.17-.42-2.57-1.46-2.57-1.46Z"/><path class="cls-40" d="M306,75.81c-3.27.19-10.64,2.07-10.5,4.52l.07,10.22c0,6.66,5.21,12,11.55,12l4.77,0c6.34,0,11.44-5.49,11.39-12.14l-.08-11.73c-4.54-3.21-8.1-3.31-17.19-2.79"/><path class="cls-58" d="M30.68,95.12a12.11,12.11,0,0,0-3.16,6.25l-2.92.24a6.91,6.91,0,0,1-.12-5.24c1.13-2.62,6.2-1.25,6.2-1.25"/><path class="cls-58" d="M19.22,79.71s9.76-1.92,11.1-1.92-2.18,1-1.93,1,3.84-.42,5-.42-.26.5,0,.59,4.33-.25,4.59-.17-1.5.75-1.25.83,2.5.42,3,.5-.42.34-.17.5a35.1,35.1,0,0,1,3.59,1.59c1.42.84.09.67.34.92s2.25,2,2.83,2.76-2.39.67-2.39.67-22.9-1-24.23-.75-10.51-1-.5-6.1"/><path class="cls-55" d="M301.53,73.24s7.79-4.16,15.14-1.9,12.64,6.47,5.59,8.26A101.26,101.26,0,0,1,304,81.92c-2,.06-1.52,2.25-2,2.61s-.57,3.56-.57,3.56l-.11,3.39h-1.92s.33-3.39-1.59-2.92-1.69,5.35.35,5.71c1.82.32,1.4,5.19,1.4,5.19s-5-.74-5.64-12.14,1.93-11.88,4.69-11.59a5.83,5.83,0,0,1,3-2.49"/><path class="cls-50" d="M219.69,95.07l.63,6.13s.77,6.73-.84,8.52a39,39,0,0,1-10.3,8.3s2.91,13.8,3.36,13.68,12.3-8.22,15.75-22.39c.87-3.56-1.12-9.65-2.08-14.36Z"/><path class="cls-50" d="M189.52,118.19s-3.63-1.1-5.3-1.57-3.1-6.08-4.28-7.74-1.55-7.51-1.55-7.51l1.9-12.27L173,88.27s-4.21,14.68-2.62,21.2c3.45,14.18,15.31,22.27,15.75,22.39s3.36-13.67,3.36-13.67"/><path class="cls-40" d="M220.93,95.1a14.61,14.61,0,0,0-1.35-2c-.54-.56-1.5-.77-2-1.55s-.77-2.55-.3-2.71c.67-.23.86.25,1.17,1.39S217,87.79,218,87.35s1,.32,1,.32a.52.52,0,0,1,.35-.74c1-.25,1.19.41,1.19.41s-.36-.45.46-.66a1.09,1.09,0,0,1,1.32.73s-.77-1,.65-.75,2.36,4.7,2,5.65a5.2,5.2,0,0,0,.11,2.68Z"/><path class="cls-72" d="M425.22,84.57l-.63,6.12s-.7,6.67.84,8.52c6.51,7.82,10.44,7.46,10.44,7.46s-3.06,14.64-3.5,14.51S420.06,113,416.61,98.8c-.87-3.55,1.12-9.65,2.08-14.35Z"/><path class="cls-40" d="M424,84.61a14.28,14.28,0,0,1,1.35-2c.54-.56,1.49-.77,2-1.55s.77-2.55.3-2.71c-.66-.23-.86.25-1.16,1.39s1.44-2.49.41-2.93-1,.32-1,.32a.51.51,0,0,0-.36-.73c-1-.24-1.19.41-1.19.41s.37-.45-.46-.65a1.09,1.09,0,0,0-1.33.72s.77-1-.64-.76-2.37,4.71-2,5.66a5.25,5.25,0,0,1-.11,2.68Z"/><path class="cls-40" d="M178.61,88.9A7.66,7.66,0,0,1,179.69,87c.56-.58,1.55-.8,2.06-1.61s.8-2.65.31-2.82c-.7-.24-.9.26-1.21,1.44s1.5-2.59.43-3c-1.23-.52-1.09.33-1.09.33a.52.52,0,0,0-.37-.76c-1-.26-1.24.42-1.24.42s.39-.48-.48-.68a1.13,1.13,0,0,0-1.38.75s.81-1-.66-.79-2.46,4.89-2,5.88a4.33,4.33,0,0,1,.14,2.26Z"/><path class="cls-43" d="M112,118.19s-3.63-1.1-5.3-1.57-3.1-6.08-4.29-7.74-1.55-7.51-1.55-7.51l1.9-12.27-7.26-.83s-4.21,14.68-2.62,21.2c3.45,14.18,15.31,22.27,15.75,22.39S112,118.19,112,118.19"/><path class="cls-40" d="M101.18,88.89a8,8,0,0,1,1.17-2.06c.59-.63,1.67-.87,2.23-1.73s.86-2.86.33-3c-.74-.25-1,.28-1.3,1.56s1.62-2.79.46-3.28c-1.31-.56-1.16.36-1.16.36a.57.57,0,0,0-.4-.81c-1.12-.28-1.33.46-1.33.46s.41-.51-.51-.73a1.23,1.23,0,0,0-1.5.81s.88-1.09-.71-.85-2.66,5.27-2.21,6.33a5,5,0,0,1,.16,2.52Z"/><path class="cls-40" d="M45.44,98a9.88,9.88,0,0,0,1.05-2.64c0-.84-.51-1.75-.27-2.71s1.43-2.5,1.91-2.25c.68.36.45.86-.22,1.95s.88-3,2-2.5.52,1.05.52,1.05a.54.54,0,0,1,.83-.26c.93.59.56,1.24.56,1.24s.09-.63.86-.13a1.18,1.18,0,0,1,.43,1.58s.18-1.34,1.07-.06-1.93,5.36-3,5.75a2.42,2.42,0,0,0-1.38,1.26Z"/><path class="cls-43" d="M133.37,118.19s3.63-1.1,5.3-1.57,3.1-6.08,4.28-7.74,1.55-7.51,1.55-7.51L142.59,89.1l7.26-.83s4.21,14.68,2.62,21.2c-3.45,14.18-15.31,22.27-15.75,22.39s-3.36-13.67-3.36-13.67"/><path class="cls-40" d="M143.83,89a7.76,7.76,0,0,0-1.1-2c-.57-.59-1.58-.82-2.1-1.64s-.82-2.69-.31-2.86c.7-.24.91.26,1.23,1.46s-1.52-2.62-.43-3.09c1.24-.53,1.09.34,1.09.34a.54.54,0,0,1,.37-.77c1-.26,1.26.43,1.26.43s-.39-.48.48-.69a1.16,1.16,0,0,1,1.41.76s-.82-1,.68-.8,2.5,5,2.07,6a4.83,4.83,0,0,0-.15,2.38Z"/><path class="cls-29" d="M140.34,147.06a2.68,2.68,0,0,1-2.68,2.67H104.5a2.68,2.68,0,0,1-2.68-2.67V127.41a2.68,2.68,0,0,1,2.68-2.67h33.16a2.68,2.68,0,0,1,2.68,2.67Z"/><path class="cls-29" d="M219,147.06a2.68,2.68,0,0,1-2.68,2.67H183.12a2.68,2.68,0,0,1-2.68-2.67V127.41a2.68,2.68,0,0,1,2.68-2.67h33.16a2.68,2.68,0,0,1,2.68,2.67Z"/><path class="cls-50" d="M189.74,85.31a17.47,17.47,0,0,1,7.83-3.24c4.15-.4,1.41,1.65,1.58,2s5.09-1.08,5.62-1.19-2.52,2.44-2.52,2.44l3.47-.68s-2,1.31-.58,1.36,2.26-.28,2.26-.05-1.84.74.21.62a18.57,18.57,0,0,1,2.41-.05l.38,1.87s.63,1.59.84,2.22-.84,1.36-2.62,1.07-.58.86-.58.86a69.34,69.34,0,0,1-8.35-.29c-2.47-.39-1.36.8-1.36.8s-1.69-.18-2.42-.23,0,1-.84,1-2.21-.06-2.89-.06-2.37,1.7-2.68,2.1,0,6.53,0,6.53l-1.84.29s-.75-3.8-2.21-2c-1,1.2,2.42,10.17,1.37,9,0,0-4.21-3.75-3.68-11.87.32-4.94.84-6.82,1.52-7.22s.16-.23.16-.23,3.79-4.94,5.15-6.36-.21,1.36-.21,1.36"/><path class="cls-50" d="M115.83,84.59s4.35-4.6,8.92-4.48,4.19,2.6,5.5,2.83,3.75,2.18,3.64,2.54,2,.88,2.39,1.71a11.7,11.7,0,0,1,2,9.38c-.37,1.86-2.72,6-2.72,6l-2.4.12s.55-8-2.72-8.67-8.11.47-11.69-.71-5.64-.11-6.21,1.3c-1.09,2.72-.16,5.55-.21,7.49l-2.23-.29s-2.15-6.25-2-8.78c.27-3.53,3.7-8.67,7.74-8.43"/><path class="cls-40" d="M136.83,101s2-1.19,1.08,2.83-2.28,2.28-2.28,2.28-1.85-4.57,1.2-5.12"/><path class="cls-40" d="M109.18,100.47s-2.19-.65-1.31,3.37,2.28,2.28,2.28,2.28,2.07-5.11-1-5.66"/><path class="cls-40" d="M187.34,102.09s-.51-3.25-2.39-1.94,0,6.56,1.48,5.7.91-3.76.91-3.76"/><path class="cls-40" d="M299.33,90.84s-.54-3.39-2.5-2,0,6.85,1.55,6,1-3.93,1-3.93"/><path class="cls-73" d="M458.26,108.93c-2.89-3.29-4.91-2.66-9.64-2.69l-6.63,0A15.9,15.9,0,0,0,429.55,112a15.87,15.87,0,0,1,3.65,10.25l-.2,26.55,23.68.17-.2-26.72c0-4.07-.72-10.52,1.78-13.35"/><path class="cls-74" d="M433,140.65l0,5.29c0,4.42,4.44,8,9.82,7.95l4.06,0c5.39,0,9.72-3.65,9.68-8.07l0-5.15Z"/><path class="cls-39" d="M449.31,108.89a4.61,4.61,0,0,1-4,2,5.41,5.41,0,0,1-4.23-2V92.74h8.19Z"/><rect class="cls-74" x="433.05" y="148.47" width="10.2" height="58.06"/><rect class="cls-74" x="446.16" y="148.59" width="10.42" height="57.93"/><path class="cls-29" d="M434.2,208c0,1.52,0,2.76,1.23,2.76H441c1.25,0,1.28-1.24,1.28-2.76A2.55,2.55,0,0,0,440,205.2h-3.53A2.56,2.56,0,0,0,434.2,208"/><path class="cls-72" d="M439.41,105.91s3.91,22.47,2.31,43.19h-9.64l.33-30-3.19-6.85s2.23-5.1,10.19-6.37"/><path class="cls-72" d="M435.43,106.94s2.79,12.43,2.55,13.87l1.59-.08-1.76,1L442,133.59s-.37-18.38-2.45-28.27c0,0-2.79.35-4.14,1.62"/><rect class="cls-29" x="441.96" y="140.67" width="6.73" height="2.54"/><rect class="cls-68" x="443.39" y="140.36" width="3.96" height="3.06"/><path class="cls-72" d="M433.37,135.07l6.53.24s.87,9.48-3.19,10-3.34-10.21-3.34-10.21"/><polygon class="cls-75" points="441.96 143.21 441.89 149.41 433.01 149.1 442.33 149.97 441.96 143.21"/><path class="cls-76" d="M444.82,107.82l-1,4.31s-3.61-4-3.73-4.74-.16-1.27-.16-1.27l.54-1.69Z"/><path class="cls-76" d="M445.93,107.82l1,4.31s3.61-4,3.72-4.74.16-1.27.16-1.27l-.53-1.69Z"/><path class="cls-71" d="M444.82,107.82V110l-.5-.06a17.5,17.5,0,0,1,.51-2.13"/><path class="cls-71" d="M445.95,107.82v2.23l.5,0a18.67,18.67,0,0,0-.51-2.2"/><polygon class="cls-77" points="444.58 108.54 446.12 108.51 446.65 110.64 446.12 111.99 444.68 111.99 444.15 110.5 444.58 108.54"/><polygon class="cls-69" points="445.3 134.06 442.31 130.24 444.68 111.99 446.12 111.99 448.27 130.29 445.3 134.06"/><path class="cls-40" d="M448.51,77.37c3.27.19,10.64,2.07,10.51,4.52l-.07,10.21c0,6.66-5.21,12-11.55,12l-4.78,0c-6.33,0-11.43-5.48-11.39-12.14l.09-11.73c4.54-3.21,8.1-3.31,17.19-2.79"/><path class="cls-74" d="M451.69,105.85s-3.85,22.44-2.25,43.27l8.83.24.46-30.21.61-11.86s.35-.16-7.66-1.44"/><path class="cls-72" d="M455.73,106.89s-2.81,12.5-2.58,13.94l-1.6-.08,1.76,1-4.22,11.89s.37-18.49,2.46-28.42c0,0,2.8.35,4.17,1.63"/><path class="cls-72" d="M458,135.18l-6.57.24s-.88,9.54,3.21,10S458,135.18,458,135.18"/><path class="cls-72" d="M459.23,107.26s12.08,19.34,6.72,21.93a29.51,29.51,0,0,1-9.33,2.94l-3.79-5.36,6-3.62-3.29-7.77s0-10.53,3.64-8.12"/><path class="cls-78" d="M453,74.79s-7.8-4.16-15.14-1.9-12.65,6.47-5.59,8.26a97.32,97.32,0,0,0,18.3,2.32c2.71,0,2.6,6.17,2.6,6.17l.1,3.39h1.92s-.33-3.39,1.59-2.92,1.69,5.35-.35,5.71c-1.82.32-1.4,5.19-1.4,5.19s5-.74,5.64-12.14S458.74,77,456,77.29a5.82,5.82,0,0,0-3-2.5"/><path class="cls-40" d="M453.48,127.7a2.1,2.1,0,0,1-1.54.28c-.74-.23-1.52-1.49-3.09-1.11s-2.05.56-2.05,1,1.59.46,1.59.46-2.7.28-2.5,1.3l.19,1a5,5,0,0,0,.92,1.95,1.47,1.47,0,0,0,1,1.39s0,1,1.4.93,3.18-.42,3.79-1.95c.18-.46,2.78-1.57,2.78-1.57Z"/><path class="cls-78" d="M456,77.29s-2.59-4-4.44-4.63-1.07.48-1.07.48a6.57,6.57,0,0,0-2.32-1.55c-1-.17-.59.71-.59.71a18.12,18.12,0,0,0-2.57-.53c-1.13-.12-1,.48-1,.48a32.64,32.64,0,0,0-3.92-.3c-.48.12-.18,1.25-.18,1.25l-1,.65s14.77,6.61,17.1,3.64"/><path class="cls-78" d="M449.68,83.37s-4.76,1.25-7.26.72-.17-.9-.17-.9-3.64,1-4.77.06,0-1.13,0-1.13-3.69.66-4.4,0-.42-1.07-.42-1.07-1.43.77-2,.41.65-1.3,1.84-1.55,22.58,0,17.15,3.46"/><path class="cls-29" d="M447.93,208c0,1.29,0,2.34,1,2.34h4.74c1.06,0,1.09-1,1.09-2.34a2.17,2.17,0,0,0-1.93-2.35h-3a2.18,2.18,0,0,0-1.94,2.35"/></g></g></g></svg>